<?xml version="1.0" encoding="UTF-8"?>
<!-- Created with Inkscape (http://www.inkscape.org/) -->
<svg version="1.1" viewBox="0 0 409.6 409.6" xmlns="http://www.w3.org/2000/svg" xmlns:xlink="http://www.w3.org/1999/xlink">
 <g stroke-width=".8">
  <path d="m201.02 401.81c2.1033-0.16534 5.3433-0.16334 7.2 5e-3 1.8567 0.16778 0.13587 0.30306-3.8241 0.30062-3.96-2e-3 -5.4791-0.13971-3.3759-0.30505zm21.226-0.75747c0.57749-0.23109 1.2675-0.20268 1.5333 0.0631 0.26583 0.26583-0.20667 0.45491-1.05 0.42018-0.93196-0.0384-1.1215-0.22795-0.48333-0.48333zm-28.435-22.408c0.77837-0.20283 1.8584-0.1895 2.4 0.0297 0.54162 0.21914-0.0952 0.38509-1.4152 0.36879-1.32-0.0163-1.7632-0.1956-0.98477-0.39843zm19.2 0c0.77838-0.20283 1.8584-0.1895 2.4 0.0297 0.54162 0.21914-0.0952 0.38509-1.4152 0.36879-1.32-0.0163-1.7632-0.1956-0.98478-0.39843zm-128.32-46.446c-0.9951-1.2688-0.9668-1.2972 0.30205-0.30205 0.77 0.60388 1.4 1.2339 1.4 1.4 0 0.65843-0.65695 0.23465-1.702-1.098zm239.7-1c0.79639-0.88 1.628-1.6 1.848-1.6s-0.25159 0.72-1.048 1.6-1.628 1.6-1.848 1.6 0.2516-0.72 1.048-1.6zm-74.737-6.8667c0.0384-0.93196 0.22795-1.1215 0.48332-0.48333 0.2311 0.57749 0.20268 1.2675-0.0631 1.5333-0.26583 0.26584-0.45491-0.20667-0.42017-1.05zm81.937-0.33333c0.79639-0.88 1.628-1.6 1.848-1.6s-0.25159 0.72-1.048 1.6-1.628 1.6-1.848 1.6 0.2516-0.72 1.048-1.6zm-229.2-6c-1.9432-1.98-3.3531-3.6-3.1331-3.6s1.9899 1.62 3.9331 3.6c1.9432 1.98 3.3531 3.6 3.1331 3.6s-1.9899-1.62-3.9331-3.6zm-19.137-41.667c0.0384-0.93196 0.22795-1.1215 0.48333-0.48333 0.2311 0.57749 0.20268 1.2675-0.06312 1.5333-0.26584 0.26583-0.45491-0.20667-0.42018-1.05zm241.66-11.533c0-1.1 0.18158-1.55 0.40351-1s0.22193 1.45 0 2-0.40351 0.1-0.40351-1zm-241.66-2.0667c0.0384-0.93196 0.22795-1.1215 0.48333-0.48333 0.2311 0.57749 0.20268 1.2675-0.06312 1.5333-0.26584 0.26583-0.45491-0.20667-0.42018-1.05zm241.66-5.9333c0-1.1 0.18158-1.55 0.40351-1s0.22193 1.45 0 2-0.40351 0.1-0.40351-1zm-141.13-2.1298c0.55-0.22193 1.45-0.22193 2 0s0.1 0.40351-1 0.40351-1.55-0.18158-1-0.40351zm-12.643-8.8702-2.7569-3 3 2.7569c2.7923 2.5661 3.3678 3.2431 2.7569 3.2431-0.13369 0-1.4837-1.35-3-3zm31.243-1.302c0-0.16612 0.63-0.79612 1.4-1.4 1.2688-0.9951 1.2972-0.9668 0.30205 0.30205-1.0451 1.3326-1.702 1.7564-1.702 1.098zm7.2-8c0-0.16612 0.63-0.79612 1.4-1.4 1.2688-0.9951 1.2971-0.9668 0.30204 0.30205-1.0451 1.3326-1.702 1.7564-1.702 1.098zm-56.843-8.298-2.7569-3 3 2.7569c2.7923 2.5661 3.3678 3.2431 2.7569 3.2431-0.13369 0-1.4837-1.35-3-3zm-123.09-6.2667c0.03838-0.93196 0.22795-1.1215 0.48333-0.48333 0.2311 0.57749 0.20268 1.2675-0.06316 1.5333-0.26583 0.26583-0.45491-0.20667-0.42018-1.05zm-23.2-1.6c0.038387-0.93196 0.22795-1.1215 0.48333-0.48333 0.2311 0.57749 0.20268 1.2675-0.063158 1.5333s-0.45491-0.20667-0.42018-1.05zm395.2 0c0.0384-0.93196 0.22795-1.1215 0.48333-0.48333 0.23109 0.57749 0.20268 1.2675-0.0631 1.5333-0.26583 0.26583-0.45491-0.20667-0.42018-1.05zm-163.2-6.4c0.0384-0.93196 0.22795-1.1215 0.48332-0.48333 0.2311 0.57749 0.20268 1.2675-0.0631 1.5333-0.26583 0.26583-0.45491-0.20667-0.42017-1.05zm-209.54-3.5333c0-1.1 0.18158-1.55 0.40351-1 0.22193 0.55 0.22193 1.45 0 2-0.22193 0.55-0.40351 0.1-0.40351-1zm350.49-2.4c0-1.98 0.15601-2.79 0.34669-1.8 0.19069 0.99 0.19069 2.61 0 3.6-0.19068 0.99-0.34669 0.18-0.34669-1.8zm-373.59-4.4c0.00601-2.2 0.16137-3.005 0.34525-1.789 0.18388 1.216 0.17897 3.016-0.01092 4-0.18989 0.98395-0.34034-0.011-0.33433-2.211zm231.83 2.3333c0.0384-0.93196 0.22795-1.1215 0.48332-0.48333 0.2311 0.57749 0.20268 1.2675-0.0631 1.5333-0.26583 0.26583-0.45491-0.20667-0.42017-1.05zm141.75-6.7333c0-1.98 0.15601-2.79 0.34669-1.8 0.19069 0.99 0.19069 2.61 0 3.6-0.19068 0.99-0.34669 0.18-0.34669-1.8zm-350.49-2.4c0-1.1 0.18158-1.55 0.40351-1 0.22193 0.55 0.22193 1.45 0 2-0.22193 0.55-0.40351 0.1-0.40351-1zm-22.463-10.067c0.038387-0.93196 0.22795-1.1215 0.48333-0.48334 0.2311 0.5775 0.20268 1.2675-0.063158 1.5333-0.26583 0.26583-0.45491-0.20667-0.42018-1.05zm151.03-18.533c-0.9951-1.2688-0.9668-1.2971 0.30204-0.30204 0.77 0.60388 1.4 1.2339 1.4 1.4 0 0.65843-0.65695 0.23464-1.702-1.098zm-24.089-11.966c0.99513-0.19136 2.4351-0.18409 3.2 0.0162 0.76487 0.20023-0.0494 0.3568-1.8093 0.34792-1.76-9e-3 -2.3858-0.17272-1.3907-0.36407zm-11.485-24.434-1.524-1.8 1.8 1.524c1.6916 1.4322 2.1642 2.076 1.524 2.076-0.15181 0-0.96181-0.81-1.8-1.8zm1.276-43.25c0-0.13768 1.17-1.3077 2.6-2.6l2.6-2.3497-2.3497 2.6c-2.1902 2.4236-2.8503 2.9677-2.8503 2.3497zm-43.2-8.9497c1.0334-1.1 2.0589-2 2.2789-2s-0.4455 0.9-1.4789 2c-1.0334 1.1-2.0589 2-2.2789 2s0.44551-0.9 1.4789-2zm71.85-4.1465c0.5775-0.2311 1.2675-0.20268 1.5333 0.06316 0.26583 0.26583-0.20667 0.45491-1.05 0.42018-0.93196-0.03838-1.1215-0.22795-0.48334-0.48333zm-94.25-5.3556c0-0.16612 0.63-0.79612 1.4-1.4 1.2688-0.9951 1.2971-0.9668 0.30204 0.30204-1.0451 1.3326-1.702 1.7564-1.702 1.098zm289.92-3.098-1.524-1.8 1.8 1.524c1.6916 1.4322 2.1642 2.076 1.524 2.076-0.15181 0-0.96181-0.81-1.8-1.8zm-7.5845-7.6-1.9394-2.2 2.2 1.9395c1.21 1.0667 2.2 2.0567 2.2 2.2 0 0.62742-0.64784 0.11678-2.4606-1.9395zm-271.14-0.50204c0-0.16612 0.63-0.79612 1.4-1.4 1.2688-0.9951 1.2971-0.9668 0.30204 0.30204-1.0451 1.3326-1.702 1.7564-1.702 1.098zm132.61-30.678c1.4379-0.17805 3.5979-0.17438 4.8 0.0082 1.2021 0.18254 0.0257 0.32822-2.6143 0.32372-2.64-0.0045-3.6236-0.15384-2.1857-0.33189zm32.036-20.767c0.57749-0.2311 1.2675-0.20268 1.5333 0.063158 0.26583 0.26583-0.20667 0.45491-1.05 0.42018-0.93196-0.038387-1.1215-0.22795-0.48333-0.48333zm-44.8-1.6c0.5775-0.2311 1.2675-0.20268 1.5333 0.063158 0.26583 0.26583-0.20667 0.45491-1.05 0.42018-0.93196-0.038387-1.1215-0.22795-0.48334-0.48333zm30.4 0c0.57749-0.2311 1.2675-0.20268 1.5333 0.063158s-0.20667 0.45491-1.05 0.42018c-0.93196-0.038387-1.1215-0.22795-0.48333-0.48333z" fill="#d0d0d0"/>
  <path d="m187.05 401.05c0.5775-0.23109 1.2675-0.20268 1.5333 0.0631 0.26583 0.26583-0.20667 0.45491-1.05 0.42018-0.93196-0.0384-1.1215-0.22795-0.48334-0.48333zm4-22.4c0.5775-0.23109 1.2675-0.20268 1.5333 0.0631 0.26583 0.26583-0.20667 0.45491-1.05 0.42018-0.93196-0.0384-1.1215-0.22795-0.48334-0.48333zm25.6 0c0.57749-0.23109 1.2675-0.20268 1.5333 0.0631 0.26583 0.26583-0.20667 0.45491-1.05 0.42018-0.93196-0.0384-1.1215-0.22795-0.48333-0.48333zm-146.35-28.854c-0.9951-1.2688-0.9668-1.2972 0.30204-0.30205 0.77 0.60388 1.4 1.2339 1.4 1.4 0 0.65843-0.65695 0.23465-1.702-1.098zm266.5 1.098c0-0.16612 0.63-0.79612 1.4-1.4 1.2688-0.9951 1.2971-0.9668 0.30205 0.30205-1.0451 1.3326-1.702 1.7564-1.702 1.098zm-84.737-4.1646c0.0384-0.93196 0.22795-1.1215 0.48332-0.48333 0.2311 0.57749 0.20268 1.2675-0.0631 1.5333-0.26583 0.26584-0.45491-0.20667-0.42017-1.05zm-194.57-9.7333c-0.9951-1.2688-0.9668-1.2972 0.30204-0.30205 0.77 0.60388 1.4 1.2339 1.4 1.4 0 0.65843-0.65695 0.23465-1.702-1.098zm192.97-6.2667c0.0384-0.93196 0.22795-1.1215 0.48332-0.48333 0.2311 0.57749 0.20268 1.2675-0.0631 1.5333-0.26583 0.26584-0.45491-0.20667-0.42017-1.05zm-166.99-61.133c0-3.3 0.14121-4.65 0.31381-3 0.17259 1.65 0.17259 4.35 0 6-0.1726 1.65-0.31381 0.3-0.31381-3zm241.52-8.8c0-1.54 0.16464-2.17 0.36586-1.4s0.20122 2.03 0 2.8-0.36586 0.14-0.36586-1.4zm-82.522-9.2667c0.0384-0.93196 0.22795-1.1215 0.48332-0.48333 0.2311 0.57749 0.20268 1.2675-0.0631 1.5333-0.26583 0.26583-0.45491-0.20667-0.42017-1.05zm-42.463-4.6354c0-0.16612 0.63-0.79612 1.4-1.4 1.2688-0.9951 1.2972-0.9668 0.30205 0.30205-1.0451 1.3326-1.702 1.7564-1.702 1.098zm-33.276-5.498-1.524-1.8 1.8 1.524c1.6916 1.4322 2.1642 2.076 1.524 2.076-0.15181 0-0.96181-0.81-1.8-1.8zm74.139-5.8667c0.0384-0.93196 0.22795-1.1215 0.48332-0.48333 0.2311 0.57749 0.20268 1.2675-0.0631 1.5333-0.26583 0.26583-0.45491-0.20667-0.42017-1.05zm-1.6-15.2c0.0384-0.93196 0.22795-1.1215 0.48332-0.48333 0.2311 0.57749 0.20268 1.2675-0.0631 1.5333-0.26583 0.26583-0.45491-0.20667-0.42017-1.05zm-210.34-6.7333c0-1.1 0.18158-1.55 0.40351-1 0.22193 0.55 0.22193 1.45 0 2-0.22193 0.55-0.40351 0.1-0.40351-1zm350.43-0.4c0.0163-1.32 0.1956-1.7632 0.39843-0.98478s0.1895 1.8584-0.0297 2.4c-0.21914 0.54162-0.38509-0.0952-0.36879-1.4152zm0-19.2c0.0163-1.32 0.1956-1.7632 0.39843-0.98477 0.20283 0.77837 0.1895 1.8584-0.0297 2.4-0.21914 0.54162-0.38509-0.0952-0.36879-1.4152zm-350.43-0.4c0-1.1 0.18158-1.55 0.40351-1 0.22193 0.55 0.22193 1.45 0 2-0.22193 0.55-0.40351 0.1-0.40351-1zm372.74-4.4667c0.0384-0.93196 0.22795-1.1215 0.48333-0.48334 0.23109 0.5775 0.20268 1.2675-0.0631 1.5333-0.26583 0.26583-0.45491-0.20667-0.42018-1.05zm-234.46-59.933c1.0334-1.1 2.0589-2 2.2789-2s-0.44551 0.9-1.4789 2-2.0589 2-2.2789 2 0.4455-0.9 1.4789-2zm10.463-28.867c0.0384-0.93196 0.22796-1.1215 0.48333-0.48334 0.2311 0.5775 0.20268 1.2675-0.0631 1.5333-0.26584 0.26583-0.45491-0.20667-0.42017-1.05zm49.861-10.933-1.524-1.8 1.8 1.524c1.6916 1.4322 2.1642 2.076 1.524 2.076-0.15181 0-0.96181-0.81-1.8-1.8zm-151.12-6.2c0.79639-0.88 1.628-1.6 1.848-1.6s-0.25159 0.72-1.048 1.6-1.628 1.6-1.848 1.6 0.25159-0.72 1.048-1.6zm251.56-3.8-2.7569-3 3 2.7569c1.65 1.5163 3 2.8663 3 3 0 0.6109-0.67698 0.03544-3.2431-2.7569zm-244.36-3.4c0.79639-0.88 1.628-1.6 1.848-1.6s-0.25159 0.72-1.048 1.6-1.628 1.6-1.848 1.6 0.25159-0.72 1.048-1.6zm-19.6-12.4c2.3899-2.42 4.5253-4.4 4.7453-4.4s-1.5554 1.98-3.9453 4.4c-2.3899 2.42-4.5253 4.4-4.7453 4.4s1.5554-1.98 3.9453-4.4zm279.94-0.2-1.9394-2.2 2.2 1.9395c2.0562 1.8127 2.5669 2.4605 1.9394 2.4605-0.1433 0-1.1333-0.99-2.2-2.2zm-51.076-8.6667c0.0384-0.93195 0.22795-1.1215 0.48333-0.48333 0.23109 0.5775 0.20268 1.2675-0.0631 1.5333-0.26584 0.26583-0.45492-0.20667-0.42018-1.05zm-96.648-26.488c0.77837-0.20284 1.8584-0.1895 2.4 0.02964 0.54162 0.21914-0.0952 0.38509-1.4152 0.36879-1.32-0.0163-1.7632-0.1956-0.98477-0.39843zm12.435 0.0079c0.57749-0.2311 1.2675-0.20268 1.5333 0.06316 0.26583 0.26583-0.20667 0.45491-1.05 0.42018-0.93196-0.03838-1.1215-0.22795-0.48333-0.48333zm-17.6-22.4c0.5775-0.2311 1.2675-0.20268 1.5333 0.063158 0.26583 0.26583-0.20667 0.45491-1.05 0.42018-0.93196-0.038387-1.1215-0.22795-0.48334-0.48333zm25.6 0c0.57749-0.2311 1.2675-0.20268 1.5333 0.063158s-0.20667 0.45491-1.05 0.42018c-0.93196-0.038387-1.1215-0.22795-0.48333-0.48333z" fill="#FFFFFF"/>
  <path d="m188.65 378.65c0.5775-0.23109 1.2675-0.20268 1.5333 0.0631 0.26583 0.26583-0.20667 0.45491-1.05 0.42018-0.93196-0.0384-1.1215-0.22795-0.48334-0.48333zm30.4 0c0.57749-0.23109 1.2675-0.20268 1.5333 0.0631 0.26583 0.26583-0.20667 0.45491-1.05 0.42018-0.93196-0.0384-1.1215-0.22795-0.48333-0.48333zm-151.15-31.254c-0.9951-1.2688-0.9668-1.2972 0.30204-0.30205 0.77 0.60388 1.4 1.2339 1.4 1.4 0 0.65843-0.65695 0.23465-1.702-1.098zm276.1-3.8c2.8346-2.86 5.3338-5.2 5.5538-5.2s-1.9192 2.34-4.7538 5.2c-2.8346 2.86-5.3338 5.2-5.5538 5.2s1.9192-2.34 4.7538-5.2zm-284.1-4.2c-0.9951-1.2688-0.9668-1.2972 0.30204-0.30205 0.77 0.60388 1.4 1.2339 1.4 1.4 0 0.65843-0.65695 0.23465-1.702-1.098zm238.1-20.2c2.6124-2.64 4.9299-4.8 5.1499-4.8s-1.7375 2.16-4.3499 4.8c-2.6125 2.64-4.9299 4.8-5.1499 4.8s1.7374-2.16 4.3499-4.8zm-49.137-6.0667c0.0384-0.93196 0.22795-1.1215 0.48332-0.48333 0.2311 0.57749 0.20268 1.2675-0.0631 1.5333-0.26583 0.26584-0.45491-0.20667-0.42017-1.05zm-2.4-24c0.0384-0.93196 0.22795-1.1215 0.48332-0.48333 0.2311 0.57749 0.20268 1.2675-0.0631 1.5333-0.26583 0.26584-0.45491-0.20667-0.42017-1.05zm-1.5368-15.533c0-1.1 0.18158-1.55 0.40351-1s0.22193 1.45 0 2-0.40351 0.1-0.40351-1zm-1.6-16c0-1.1 0.18158-1.55 0.40351-1s0.22193 1.45 0 2-0.40351 0.1-0.40351-1zm-66.202-6.6-1.524-1.8 1.8 1.524c1.6916 1.4322 2.1642 2.076 1.524 2.076-0.15181 0-0.96181-0.81-1.8-1.8zm64.539-9.0667c0.0384-0.93196 0.22795-1.1215 0.48332-0.48333 0.2311 0.57749 0.20268 1.2675-0.0631 1.5333-0.26583 0.26583-0.45491-0.20667-0.42017-1.05zm-36.063-1.4354c0-0.16612 0.63-0.79612 1.4-1.4 1.2688-0.9951 1.2971-0.9668 0.30204 0.30205-1.0451 1.3326-1.702 1.7564-1.702 1.098zm-42.076-2.298-1.524-1.8 1.8 1.524c1.6916 1.4322 2.1642 2.076 1.524 2.076-0.15181 0-0.96181-0.81-1.8-1.8zm77.402-5.4c0-1.1 0.18158-1.55 0.40351-1s0.22193 1.45 0 2-0.40351 0.1-0.40351-1zm-28.926 0.49795c0-0.16612 0.63-0.79612 1.4-1.4 1.2688-0.9951 1.2971-0.9668 0.30204 0.30205-1.0451 1.3326-1.702 1.7564-1.702 1.098zm28.126-7.698c0-1.1 0.18158-1.55 0.40351-1s0.22193 1.45 0 2-0.40351 0.1-0.40351-1zm-210.46-0.46667c0.03838-0.93196 0.22795-1.1215 0.48333-0.48333 0.2311 0.57749 0.20268 1.2675-0.06316 1.5333-0.26583 0.26583-0.45491-0.20667-0.42018-1.05zm118.34 0.51388c0-0.41403 0.35588-0.97273 0.79084-1.2416 0.45349-0.28027 0.5876 0.0409 0.31441 0.75278-0.53183 1.3859-1.1052 1.6395-1.1052 0.48877zm91.263-7.7139c0.0384-0.93196 0.22795-1.1215 0.48332-0.48333 0.2311 0.57749 0.20268 1.2675-0.0631 1.5333-0.26583 0.26583-0.45491-0.20667-0.42017-1.05zm-210.34-1.1333c0-1.1 0.18158-1.55 0.40351-1 0.22193 0.55 0.22193 1.45 0 2-0.22193 0.55-0.40351 0.1-0.40351-1zm-22.463-0.46667c0.038387-0.93196 0.22795-1.1215 0.48333-0.48333 0.2311 0.57749 0.20268 1.2675-0.063158 1.5333s-0.45491-0.20667-0.42018-1.05zm372.8 0c0.0384-0.93196 0.22795-1.1215 0.48333-0.48333 0.23109 0.57749 0.20268 1.2675-0.0631 1.5333-0.26583 0.26583-0.45491-0.20667-0.42018-1.05zm22.493-0.73333c0.0163-1.32 0.1956-1.7632 0.39843-0.98478s0.1895 1.8584-0.0297 2.4c-0.21914 0.54162-0.38509-0.0952-0.36879-1.4152zm-163.23-6c0-1.1 0.18158-1.55 0.40351-1s0.22193 1.45 0 2-0.40351 0.1-0.40351-1zm163.2-17.6c0-1.1 0.18159-1.55 0.40351-1 0.22193 0.55 0.22193 1.45 0 2-0.22192 0.55-0.40351 0.1-0.40351-1zm-395.2-0.8c0-1.1 0.18158-1.55 0.40351-1 0.22193 0.55 0.22193 1.45 0 2-0.22193 0.55-0.40351 0.1-0.40351-1zm22.337-0.46666c0.03838-0.93196 0.22795-1.1215 0.48333-0.48334 0.2311 0.5775 0.20268 1.2675-0.06316 1.5333-0.26583 0.26583-0.45491-0.20667-0.42018-1.05zm350.4 0c0.0384-0.93196 0.22795-1.1215 0.48333-0.48334 0.23109 0.5775 0.20268 1.2675-0.0631 1.5333-0.26583 0.26583-0.45491-0.20667-0.42018-1.05zm-131.26-59.784c0-0.13768 1.17-1.3077 2.6-2.6l2.6-2.3497-2.3497 2.6c-2.1902 2.4236-2.8503 2.9677-2.8503 2.3497zm42.339-4.3497-1.9394-2.2 2.2 1.9394c2.0562 1.8127 2.5669 2.4606 1.9394 2.4606-0.1433 0-1.1333-0.99-2.2-2.2zm-19.739-7.9515c0.77-0.20122 2.03-0.20122 2.8 0s0.14 0.36586-1.4 0.36586-2.17-0.16464-1.4-0.36586zm-156.07-4.2485c0-1.1 0.18159-1.55 0.40352-1 0.22192 0.55 0.22192 1.45 0 2-0.22193 0.55-0.40352 0.1-0.40352-1zm63.259-10.4c0-1.54 0.16464-2.17 0.36587-1.4 0.20121 0.77 0.20121 2.03 0 2.8-0.20123 0.77-0.36587 0.14-0.36587-1.4zm78.064-4.5465c0.57749-0.2311 1.2675-0.20268 1.5333 0.06312 0.26583 0.26584-0.20667 0.45491-1.05 0.42018-0.93196-0.0384-1.1215-0.22795-0.48333-0.48333zm76.474-15.654-1.524-1.8 1.8 1.524c1.6916 1.4322 2.1642 2.076 1.524 2.076-0.15181 0-0.96181-0.81-1.8-1.8zm-8.426-8.4c-0.9951-1.2688-0.9668-1.2971 0.30205-0.30204 1.3326 1.0451 1.7564 1.702 1.098 1.702-0.16612 0-0.79612-0.63-1.4-1.4zm-106.07-11c6e-3 -2.2 0.16138-3.0051 0.34526-1.789 0.18389 1.216 0.17897 3.016-0.0109 4-0.18993 0.98395-0.34038-0.011-0.33438-2.211zm74.234 2.3333c0.0384-0.93195 0.22795-1.1215 0.48333-0.48333 0.23109 0.5775 0.20268 1.2675-0.0631 1.5333-0.26584 0.26583-0.45492-0.20667-0.42018-1.05zm0.95473-7.5333c0-1.98 0.15601-2.79 0.34669-1.8 0.19069 0.99 0.19069 2.61 0 3.6-0.19068 0.99-0.34669 0.18-0.34669-1.8zm-65.018-21.85c0-0.13768 1.17-1.3077 2.6-2.6l2.6-2.3497-2.3497 2.6c-2.1902 2.4236-2.8503 2.9677-2.8503 2.3497zm-35.4-9.0795c0.55-0.22193 1.45-0.22193 2 0s0.1 0.40351-1 0.40351-1.55-0.18158-1-0.40351zm21-4.5205c0-0.13768 1.17-1.3077 2.6-2.6l2.6-2.3497-2.3497 2.6c-2.1902 2.4236-2.8503 2.9677-2.8503 2.3497zm41.45-0.29616c0.57749-0.2311 1.2675-0.20268 1.5333 0.06316 0.26583 0.26583-0.20667 0.45491-1.05 0.42018-0.93196-0.03838-1.1215-0.22795-0.48333-0.48333zm5.6 0c0.57749-0.2311 1.2675-0.20268 1.5333 0.06316 0.26583 0.26583-0.20667 0.45491-1.05 0.42018-0.93196-0.03838-1.1215-0.22795-0.48333-0.48333zm-67.25-17.583c0.55-0.22193 1.45-0.22193 2 0 0.55 0.22193 0.1 0.40351-1 0.40351s-1.55-0.18158-1-0.40351zm20 0c0.55-0.22193 1.45-0.22193 2 0 0.55 0.22193 0.1 0.40351-1 0.40351s-1.55-0.18158-1-0.40351z" fill="#a3a3a3"/>
  <path d="m191.42 401.05c0.77837-0.20283 1.8584-0.1895 2.4 0.0297 0.54162 0.21914-0.0952 0.38509-1.4152 0.36879-1.32-0.0163-1.7632-0.1956-0.98477-0.39843zm24 0c0.77838-0.20283 1.8584-0.1895 2.4 0.0297 0.54162 0.21914-0.0952 0.38509-1.4152 0.36879-1.32-0.0163-1.7632-0.1956-0.98478-0.39843zm-14.391-21.635c2.1033-0.16534 5.3433-0.16334 7.2 5e-3 1.8567 0.16778 0.13587 0.30306-3.8241 0.30062-3.96-2e-3 -5.4791-0.13971-3.3759-0.30505zm131.78-25.313c0-0.16612 0.63-0.79612 1.4-1.4 1.2688-0.9951 1.2971-0.9668 0.30205 0.30205-1.0451 1.3326-1.702 1.7564-1.702 1.098zm-79.898-5.898c2e-3 -0.77-0.2181-3.56-0.48736-6.2-0.26924-2.64-0.61072-6.06-0.75884-7.6s-0.50924-4.42-0.8025-6.4-0.65894-5.58-0.81262-8-0.83191-9.26-1.5072-15.2-1.6228-14.76-2.1056-19.6-1.7778-17.729-2.8776-28.642c-1.0999-10.913-2.0786-22.613-2.1748-26-0.0963-3.387-0.45003-6.3624-0.78608-6.6121-0.33605-0.2497-0.75474-3.6697-0.93041-7.6-0.17568-3.9303-0.55502-7.7389-0.84298-8.4636-0.28796-0.72469-0.40928-1.9716-0.26959-2.771 0.16323-0.93405-0.31772-1.5662-1.346-1.7691-0.88-0.17366-1.3438-0.0505-1.0306 0.27372 0.81673 0.84556-10.006 14.123-27.186 33.352-8.9049 9.9668-17.676 17.152-19.897 16.3-0.56929-0.21847-1.2479-0.053-1.5079 0.36785-0.62837 1.0167-4.1503 0.98143-4.7865-0.048-0.27637-0.44717-0.84834-0.5993-1.271-0.33805-0.42271 0.26124-2.0304-0.63288-3.5726-1.987-1.5422-1.354-2.6298-2.4619-2.417-2.4619 0.21285 0-0.0859-1.17-0.66389-2.6-1.5388-3.8072-1.5415-11.804-6e-3 -17.14 1.7754-6.1686 3.6423-9.7742 9.0401-17.46 2.4722-3.52 4.4056-6.67 4.2965-7-0.10907-0.33 0.10883-0.51 0.48423-0.4 0.37539 0.11 4.0346-4.12 8.1316-9.4 11.42-14.718 36.037-45.17 39.262-48.569 1.5819-1.6672 2.724-3.0312 2.5381-3.0312-0.53746 0 6.9228-8.7638 11.727-13.776 2.4121-2.5166 6.5622-5.7566 9.2224-7.2 4.5034-2.4436 5.3605-2.6242 12.437-2.6206 6.6939 3e-3 8.0856 0.25962 11.673 2.1493 2.2404 1.18 5.9304 4.1773 8.2 6.6606 3.7894 4.1462 4.4874 5.3013 4.2213 6.9862-0.0521 0.33 0.28651 0.6 0.75248 0.6 0.46596 0 0.64009 0.33513 0.38695 0.74472-0.25315 0.4096-0.0885 0.97448 0.36583 1.2553 0.45435 0.28081 0.61898 0.84568 0.36583 1.2553-0.25333 0.4096-0.058 0.74472 0.43398 0.74472 0.49193 0 0.66219 0.37577 0.37834 0.83504-0.28385 0.45928-0.13686 1.292 0.32663 1.8505 0.46348 0.55847 1.0144 2.2527 1.2242 3.765 0.20983 1.5123 0.7481 3.9601 1.1962 5.4396 0.44804 1.4795 0.77099 2.9195 0.71764 3.2-0.0534 0.28046 0.11669 1.0499 0.37786 1.7099 1.1967 3.0243 9.397 40.124 9.0079 40.754-0.24127 0.39038-0.067 0.83368 0.38724 0.98509 0.45425 0.15142 0.97575 1.7122 1.1589 3.4683 0.18314 1.7562 0.39635 3.373 0.47382 3.593 0.0774 0.22 0.0856 0.70789 0.018 1.0842-0.0675 0.37632 0.28516 1.1758 0.78378 1.7766 0.49862 0.60081 0.9426 2.3629 0.98662 3.9158 0.044 1.5529 0.41068 2.8234 0.81479 2.8234s0.54656 0.71964 0.31655 1.5992-0.10772 1.7911 0.27176 2.0256c0.37947 0.23453 0.50114 0.91847 0.27035 1.5199-0.23077 0.60141-0.0292 1.3348 0.44799 1.6297 0.47718 0.2949 0.65072 0.88708 0.38567 1.316-0.26506 0.42887-0.15622 1.214 0.24185 1.7447 0.39808 0.53072 0.78948 2.0086 0.86977 3.2841 0.0803 1.2755 0.46819 2.7155 0.86198 3.2s0.94949 2.3209 1.2349 4.0809 0.64884 3.9894 0.80765 4.9543c0.15882 0.96486 0.49618 2.0899 0.7497 2.5001 2.1979 3.5563 2.1865 31.153-0.0143 34.714-0.22352 0.36167-0.56683 1.5422-0.76289 2.6235-0.19607 1.0812-0.73646 2.9653-1.2009 4.1868-0.46441 1.2215-0.75824 2.2209-0.65296 2.2209s-0.30589 0.9-0.91372 2-1.0287 2.27-0.93519 2.6c0.0935 0.33-0.21128 0.6-0.67725 0.6s-0.64266 0.33097-0.39265 0.7355c0.25002 0.40453-0.11446 1.3045-0.80993 2s-0.96877 1.276-0.60735 1.2899c0.36143 0.014 0.11714 0.46529-0.54286 1.0029s-1.3094 1.4844-1.4431 2.104c-1.116 5.1706-17.929 23.497-29.357 31.999-8.2628 6.1475-14.951 10.469-16.203 10.469-0.47482 0-0.9833 0.31621-1.13 0.7027-0.23557 0.62075-12.861 7.2973-13.799 7.2973-0.20243 0-0.36705-0.63-0.36584-1.4zm-188.94-4.8-2.7569-3 3 2.7569c2.7923 2.5661 3.3678 3.2431 2.7569 3.2431-0.13369 0-1.4837-1.35-3-3zm95.2-109.6-2.7569-3 3 2.7569c2.7923 2.5661 3.3678 3.2431 2.7569 3.2431-0.13369 0-1.4837-1.35-3-3zm-130.29-14.267c0.03838-0.93196 0.22795-1.1215 0.48333-0.48333 0.2311 0.57749 0.20268 1.2675-0.06316 1.5333-0.26583 0.26583-0.45491-0.20667-0.42018-1.05zm350.4-0.8c0.0384-0.93196 0.22795-1.1215 0.48333-0.48333 0.23109 0.57749 0.20268 1.2675-0.0631 1.5333-0.26583 0.26583-0.45491-0.20667-0.42018-1.05zm-372.74-5.1333c0-1.1 0.18158-1.55 0.40351-1 0.22193 0.55 0.22193 1.45 0 2-0.22193 0.55-0.40351 0.1-0.40351-1zm395.2-1.6c0-1.1 0.18159-1.55 0.40351-1 0.22193 0.55 0.22193 1.45 0 2-0.22192 0.55-0.40351 0.1-0.40351-1zm0.02968-16.4c0.0163-1.32 0.1956-1.7632 0.39843-0.98477 0.20284 0.77837 0.1895 1.8584-0.0297 2.4-0.21914 0.54162-0.38509-0.0952-0.36879-1.4152zm-395.29-1.6667c0.038387-0.93196 0.22795-1.1215 0.48333-0.48334 0.2311 0.5775 0.20268 1.2675-0.063158 1.5333-0.26583 0.26583-0.45491-0.20667-0.42018-1.05zm22.4-5.6c0.03838-0.93196 0.22795-1.1215 0.48333-0.48334 0.2311 0.5775 0.20268 1.2675-0.06316 1.5333-0.26583 0.26583-0.45491-0.20667-0.42018-1.05zm350.4 0c0.0384-0.93196 0.22795-1.1215 0.48333-0.48334 0.23109 0.5775 0.20268 1.2675-0.0631 1.5333-0.26583 0.26583-0.45491-0.20667-0.42018-1.05zm-128.9-88.63c-0.24021-0.24381-2.0397-0.64469-3.9988-0.89085-5.208-0.65434-12.942-4.566-17.55-8.8763-4.0321-3.7715-8.6928-11.772-9.1038-15.627-0.11594-1.0874-0.45207-2.3675-0.74696-2.8446-0.78885-1.2764-0.55452-14.576 0.26573-15.083 0.38541-0.2382 0.49795-0.96156 0.2501-1.6075-0.24787-0.64591-0.0634-1.1744 0.40983-1.1744 0.47326 0 0.68049-0.46906 0.4605-1.0424-0.22-0.57329 0.87714-3.5952 2.4381-6.7154 3.0864-6.1693 12.293-15.78 16.011-16.713 1.1009-0.2763 2.0016-0.82334 2.0016-1.2156s0.27-0.63679 0.6-0.54331c0.33 0.09348 1.32-0.23102 2.2-0.72111 0.88-0.49009 1.87-0.92657 2.2-0.96996s0.69-0.10643 0.8-0.1401c6.8422-2.094 15.053-2.295 21.4-0.52386 0.66 0.18417 2.19 0.61018 3.4 0.94669s2.2 0.95405 2.2 1.3723 0.31261 0.56728 0.69471 0.33113c0.38209-0.23614 2.6625 0.97976 5.0676 2.702 4.8001 3.4373 9.4797 9.6435 11.486 15.233 1.4717 4.1002 2.0265 16.659 1.0073 22.8-1.0181 6.1339-5.1909 13.848-10.199 18.855-4.0705 4.0694-10.536 8.5753-13.044 9.091-0.55654 0.11442-2.0919 0.65035-3.4119 1.191s-3.3 1.1049-4.4 1.2541-3.8 0.5151-6 0.81322c-2.2 0.29813-4.1965 0.34257-4.4368 0.09876zm-80.065-15.503c-0.9951-1.2688-0.9668-1.2971 0.30204-0.30205 1.3326 1.0451 1.7564 1.702 1.098 1.702-0.16612 0-0.79612-0.63-1.4-1.4zm151.2-11.2c-0.9951-1.2688-0.9668-1.2971 0.30205-0.30204 1.3326 1.0451 1.7564 1.702 1.098 1.702-0.16612 0-0.79612-0.63-1.4-1.4zm-266.3 0.29796c0-0.16612 0.63-0.79612 1.4-1.4 1.2688-0.9951 1.2971-0.9668 0.30204 0.30204-1.0451 1.3326-1.702 1.7564-1.702 1.098zm295.9-1.898c-0.9951-1.2688-0.9668-1.2971 0.30205-0.30204 0.77 0.60388 1.4 1.2339 1.4 1.4 0 0.65843-0.65695 0.23464-1.702-1.098zm-38.235-9.4667c0.0384-0.93195 0.22795-1.1215 0.48333-0.48333 0.23109 0.5775 0.20268 1.2675-0.0631 1.5333-0.26584 0.26583-0.45492-0.20667-0.42018-1.05zm0.0631-5.9333c0-1.1 0.18158-1.55 0.40351-1s0.22193 1.45 0 2-0.40351 0.1-0.40351-1zm22.972 0.2c-0.9951-1.2688-0.9668-1.2971 0.30205-0.30204 1.3326 1.0451 1.7564 1.702 1.098 1.702-0.16612 0-0.79612-0.63-1.4-1.4zm-145.65-27.946c0.5775-0.2311 1.2675-0.20268 1.5333 0.06316 0.26583 0.26583-0.20667 0.45491-1.05 0.42018-0.93196-0.03838-1.1215-0.22795-0.48334-0.48333zm-5.6-21.6c0.5775-0.2311 1.2675-0.20268 1.5333 0.063158 0.26583 0.26583-0.20667 0.45491-1.05 0.42018-0.93196-0.038387-1.1215-0.22795-0.48334-0.48333zm12.365-0.8079c0.77837-0.20283 1.8584-0.1895 2.4 0.029643 0.54162 0.21914-0.09523 0.38509-1.4152 0.36879-1.32-0.016304-1.7632-0.1956-0.98477-0.39843zm12.8 0c0.77838-0.20283 1.8584-0.1895 2.4 0.029643 0.54162 0.21914-0.0952 0.38509-1.4152 0.36879-1.32-0.016304-1.7632-0.1956-0.98478-0.39843z" fill="#7FC31C"/>
  <path d="m199.43 401.01c2.9883-0.15434 7.6683-0.15319 10.4 2e-3 2.7317 0.15574 0.28673 0.28202-5.4333 0.28062-5.72-2e-3 -7.955-0.12882-4.9667-0.28316zm20.967-1.006-3.2-0.57295 2.8-0.10127c1.54-0.0557 3.34 0.24769 4 0.67422 1.309 0.84594 1.1247 0.84594-3.6 0zm-33.391-0.56581c0.99513-0.19135 2.4351-0.18409 3.2 0.0162 0.76487 0.20023-0.0494 0.3568-1.8093 0.34792-1.76-9e-3 -2.3858-0.17271-1.3907-0.36406zm-6.3593-0.78068c0.5775-0.23109 1.2675-0.20268 1.5333 0.0631 0.26583 0.26583-0.20667 0.45491-1.05 0.42018-0.93196-0.0384-1.1215-0.22795-0.48334-0.48333zm46.4 0c0.57749-0.23109 1.2675-0.20268 1.5333 0.0631 0.26583 0.26583-0.20667 0.45491-1.05 0.42018-0.93196-0.0384-1.1215-0.22795-0.48333-0.48333zm-79.2-5.6c0.5775-0.23109 1.2675-0.20268 1.5333 0.0631 0.26583 0.26583-0.20667 0.45491-1.05 0.42018-0.93196-0.0384-1.1215-0.22795-0.48334-0.48333zm112 0c0.57749-0.23109 1.2675-0.20268 1.5333 0.0631 0.26583 0.26583-0.20667 0.45491-1.05 0.42018-0.93196-0.0384-1.1215-0.22795-0.48333-0.48333zm-77.6-13.6c0.5775-0.23109 1.2675-0.20268 1.5333 0.0631 0.26583 0.26583-0.20667 0.45491-1.05 0.42018-0.93196-0.0384-1.1215-0.22795-0.48334-0.48333zm11.159-0.0194c0.99513-0.19135 2.4351-0.18409 3.2 0.0162 0.76487 0.20023-0.0494 0.3568-1.8093 0.34792-1.76-9e-3 -2.3858-0.17271-1.3907-0.36406zm19.2 0c0.99513-0.19135 2.4351-0.18409 3.2 0.0162 0.76488 0.20023-0.0494 0.3568-1.8093 0.34792-1.76-9e-3 -2.3858-0.17271-1.3907-0.36406zm10.991-0.23415c-1.0085-0.43338-1.1564-0.68754-0.4-0.68754 0.66 0 1.92 0.30939 2.8 0.68754 1.0085 0.43338 1.1564 0.68754 0.4 0.68754-0.66 0-1.92-0.30939-2.8-0.68754zm11.246-1.5254c-0.24658-0.39897 0.27217-0.53698 1.1528-0.3067 1.868 0.48849 2.1041 1.0321 0.44832 1.0321-0.63403 0-1.3545-0.32642-1.6011-0.72539zm-67.646-0.38127c0-0.16868 0.7205-0.4951 1.6011-0.72539 0.88061-0.23028 1.3994-0.0923 1.1528 0.3067-0.4306 0.69673-2.7539 1.05-2.7539 0.41869zm71.606-0.48414c-0.28027-0.45349 0.0409-0.5876 0.75278-0.31441 1.3859 0.53183 1.6395 1.1052 0.48877 1.1052-0.41403 0-0.97273-0.35588-1.2416-0.79084zm-74.806-0.32357c0-0.17293 0.5587-0.5288 1.2416-0.79084 0.71193-0.27319 1.033-0.13908 0.75278 0.31441-0.46981 0.76017-1.9943 1.1244-1.9943 0.47643zm78.806-0.47643c-0.28027-0.45349 0.0409-0.5876 0.75278-0.31441 1.3859 0.53183 1.6395 1.1052 0.48877 1.1052-0.41403 0-0.97273-0.35588-1.2416-0.79084zm-82.006-0.32357c0-0.17293 0.5587-0.5288 1.2416-0.79084 0.71193-0.27319 1.033-0.13908 0.75278 0.31441-0.46981 0.76017-1.9943 1.1244-1.9943 0.47643zm85.206-0.47643c-0.28027-0.45349 0.0409-0.5876 0.75278-0.31441 1.3859 0.53183 1.6395 1.1052 0.48877 1.1052-0.41403 0-0.97273-0.35588-1.2416-0.79084zm-87.206-0.80916c0.27194-0.44 0.65319-0.8 0.84722-0.8s0.35278 0.36 0.35278 0.8-0.38124 0.8-0.84721 0.8-0.62472-0.36-0.35279-0.8zm90-0.0472c0-0.46597 0.36-0.62472 0.8-0.35278 0.44 0.27193 0.8 0.65318 0.8 0.84721s-0.36 0.35279-0.8 0.35279-0.8-0.38125-0.8-0.84722zm-112.8-7.9528c-0.66-0.42653-0.84-0.7755-0.4-0.7755s1.34 0.34897 2 0.7755 0.84 0.77549 0.4 0.77549-1.34-0.34896-2-0.77549zm135.2 0c0.66-0.42653 1.56-0.7755 2-0.7755s0.26 0.34897-0.4 0.7755-1.56 0.77549-2 0.77549-0.26-0.34896 0.4-0.77549zm-180.35-1.3655c-0.43414-1.1402-0.34226-1.232 0.44784-0.44784 0.54674 0.54267 0.79254 1.1882 0.54622 1.4345-0.24631 0.24631-0.69364-0.19769-0.99406-0.98667zm-2.7711-2.0709c-1.0119-1.685-0.99489-1.7021 0.38266-0.38266 0.79298 0.75953 1.2696 1.5532 1.0591 1.7636-0.21046 0.21046-0.85926-0.41096-1.4418-1.381zm231.92 0.23639c0.47096-0.88 1.0363-1.6 1.2563-1.6s0.0146 0.72-0.45629 1.6c-0.47096 0.88-1.0363 1.6-1.2563 1.6s-0.0146-0.72 0.4563-1.6zm3.7919-3.2345c0.54555-0.58809 1.5685-1.1539 2.2733-1.2573 0.70476-0.10344 1.0384 0.0549 0.74143 0.3519-0.29699 0.29698-0.77998 0.54548-1.0733 0.55222-0.29333 6e-3 -1.0733 0.32955-1.7333 0.71736-0.97257 0.57148-1.012 0.50246-0.2081-0.36415zm-34.509-1.4321c-0.22662-0.36667 0.0963-0.66667 0.71759-0.66667s0.94421 0.3 0.71759 0.66667c-0.22661 0.36667-0.54953 0.66667-0.71759 0.66667-0.16807 0-0.49099-0.3-0.71759-0.66667zm-175.32-2.5866c-0.29003-0.46927-0.31128-1.0693-0.0472-1.3333 0.26406-0.26406 0.48011-0.0389 0.48011 0.50044 0 0.5393 0.41562 0.72368 0.92361 0.40973 0.57224-0.35367 0.70644-0.21946 0.35278 0.35278-0.7073 1.1444-1.0371 1.158-1.7093 0.0704zm179.16-0.0574c-0.34503-0.55827-0.23338-0.72312 0.27639-0.40806 0.47041 0.29073 1.0376 0.0763 1.2604-0.47639 0.29-0.71931 0.42313-0.73415 0.46833-0.0522 0.0913 1.3767-1.3245 2.038-2.0052 0.93665zm36.468 0.60854c0-0.16612 0.63-0.79612 1.4-1.4 1.2688-0.9951 1.2971-0.9668 0.30205 0.30205-1.0451 1.3326-1.702 1.7564-1.702 1.098zm-219.52-2.7646c-0.22662-0.36667 0.0963-0.66667 0.71759-0.66667s0.94421 0.3 0.71759 0.66667c-0.2266 0.36667-0.54952 0.66667-0.71759 0.66667-0.16806 0-0.49098-0.3-0.71759-0.66667zm187.2 0c-0.22662-0.36667 0.0963-0.66667 0.71759-0.66667s0.94421 0.3 0.71759 0.66667c-0.22661 0.36667-0.54953 0.66667-0.71759 0.66667-0.16807 0-0.49099-0.3-0.71759-0.66667zm-224.96-2.7333-1.524-1.8 1.8 1.524c1.6916 1.4322 2.1642 2.076 1.524 2.076-0.1518 0-0.9618-0.81-1.8-1.8zm227.21 0.88944c-0.34503-0.55827-0.23338-0.72312 0.27639-0.40807 0.47041 0.29073 1.0376 0.0763 1.2604-0.47639 0.29-0.71931 0.42313-0.73415 0.46833-0.0522 0.0913 1.3767-1.3245 2.038-2.0052 0.93666zm35.668-0.19149c0-0.16612 0.63-0.79612 1.4-1.4 1.2688-0.9951 1.2971-0.9668 0.30205 0.30205-1.0451 1.3326-1.702 1.7564-1.702 1.098zm-269.6-8.0979c-1.9432-1.98-3.3531-3.6-3.1331-3.6s1.9899 1.62 3.9331 3.6c1.9432 1.98 3.3531 3.6 3.1331 3.6-0.22 0-1.9899-1.62-3.9331-3.6zm277.2-0.4c2.1669-2.2 4.1198-4 4.3398-4s-1.3729 1.8-3.5398 4-4.1199 4-4.3399 4 1.3729-1.8 3.5399-4zm-243.7 1.8c-0.9951-1.2688-0.9668-1.2972 0.30205-0.30205 0.77 0.60388 1.4 1.2339 1.4 1.4 0 0.65843-0.65695 0.23465-1.702-1.098zm152.97-4.6667c0.0384-0.93196 0.22795-1.1215 0.48332-0.48333 0.2311 0.57749 0.20268 1.2675-0.0631 1.5333-0.26583 0.26584-0.45491-0.20667-0.42017-1.05zm-160.97-1.7333c-0.9951-1.2688-0.9668-1.2972 0.30205-0.30205 0.77 0.60388 1.4 1.2339 1.4 1.4 0 0.65843-0.65695 0.23465-1.702-1.098zm225.59 0.39265c0.49306-0.49305 1.4872-0.98315 2.2091-1.0891 0.96927-0.14225 1.0782 0.0418 0.41619 0.70381-0.49305 0.49306-1.4872 0.98315-2.2091 1.0891-0.96926 0.14226-1.0781-0.0418-0.41619-0.70381zm34.113-2.9926c0.79639-0.88 1.628-1.6 1.848-1.6s-0.25159 0.72-1.048 1.6-1.628 1.6-1.848 1.6 0.2516-0.72 1.048-1.6zm-294.48-1-1.524-1.8 1.8 1.524c1.6916 1.4322 2.1642 2.076 1.524 2.076-0.15181 0-0.96181-0.81-1.8-1.8zm272.08-7c3.4994-3.52 6.5425-6.4 6.7625-6.4s-2.4631 2.88-5.9625 6.4-6.5425 6.4-6.7625 6.4 2.4631-2.88 5.9625-6.4zm-249.62-1-6.3812-6.6 6.6 6.3812c6.1299 5.9267 6.9647 6.8188 6.3812 6.8188-0.12032 0-3.0903-2.97-6.6-6.6zm45.619 5.8c0.27194-0.44 0.65319-0.8 0.84722-0.8s0.35278 0.36 0.35278 0.8-0.38124 0.8-0.84721 0.8-0.62472-0.36-0.35279-0.8zm1.2632-2.8667c0.0384-0.93196 0.22796-1.1215 0.48333-0.48333 0.2311 0.57749 0.20268 1.2675-0.0631 1.5333-0.26584 0.26584-0.45491-0.20667-0.42017-1.05zm229.54 0.96462c0-0.16612 0.63-0.79612 1.4-1.4 1.2688-0.9951 1.2971-0.9668 0.30205 0.30205-1.0451 1.3326-1.702 1.7564-1.702 1.098zm-242.4-5.298c-0.47096-0.88-0.67629-1.6-0.45629-1.6s0.78533 0.72 1.2563 1.6 0.6763 1.6 0.4563 1.6-0.78534-0.72-1.2563-1.6zm13.663 0.33333c0.0384-0.93196 0.22796-1.1215 0.48333-0.48333 0.2311 0.57749 0.20268 1.2675-0.0631 1.5333-0.26584 0.26584-0.45491-0.20667-0.42017-1.05zm233.06-0.73762c0.0978-0.66655 0.67886-1.6583 1.2912-2.2038 0.92926-0.82792 0.95553-0.78134 0.15885 0.28171-0.52496 0.70048-0.75365 1.4744-0.50819 1.7199 0.24545 0.24546 0.0939 0.66405-0.33672 0.93021-0.43064 0.26615-0.70296-0.0614-0.60512-0.72799zm-312.67-2.4212c-0.8541-0.64601-1.1682-1.1746-0.69796-1.1746 0.47022 0 1.3031 0.54 1.8509 1.2 1.2458 1.501 0.85387 1.4924-1.1529-0.0254zm61.96-0.76575c-0.54373-0.65516-1.2473-1.0313-1.5634-0.83594s-2.3454-1.5186-4.5094-3.8088l-3.9345-4.1641 4.0472 3.8194c2.226 2.1007 4.2382 3.6285 4.4716 3.3951 0.2334-0.23339 1.0779 0.29786 1.8768 1.1806 0.79883 0.8827 1.2607 1.6049 1.0264 1.6049s-0.87091-0.53604-1.4146-1.1912zm19.256-3.2755c0.0384-0.93196 0.22796-1.1215 0.48333-0.48333 0.2311 0.57749 0.20268 1.2675-0.0631 1.5333-0.26584 0.26584-0.45491-0.20667-0.42017-1.05zm-59.573-2.0797c0.23105-0.37384 0.75521-0.4726 1.1648-0.21944 1.0467 0.64689 0.92885 0.89916-0.42009 0.89916-0.64065 0-0.97577-0.30587-0.74472-0.67972zm270.4 0c0.23105-0.37384 0.75521-0.4726 1.1648-0.21944 1.0467 0.64689 0.92885 0.89916-0.42009 0.89916-0.64065 0-0.97577-0.30587-0.74472-0.67972zm-210.03-1.9203c0.0384-0.93196 0.22796-1.1215 0.48333-0.48333 0.2311 0.57749 0.20268 1.2675-0.0631 1.5333-0.26584 0.26584-0.45491-0.20667-0.42017-1.05zm212.74-1.4354c0-0.16612 0.63-0.79612 1.4-1.4 1.2688-0.9951 1.2971-0.9668 0.30205 0.30205-1.0451 1.3326-1.702 1.7564-1.702 1.098zm-285.97-13.243c-0.25314-0.4096-0.15439-0.93376 0.21945-1.1648 0.37384-0.23105 0.67972 0.10407 0.67972 0.74472 0 1.3489-0.25227 1.4668-0.89917 0.42009zm-24.153-0.66335c0.29073-0.4704 0.07634-1.0376-0.47639-1.2604-0.71931-0.29-0.73415-0.42313-0.0522-0.46833 1.3767-0.0913 2.038 1.3245 0.93666 2.0052-0.55828 0.34503-0.72312 0.23337-0.40806-0.2764zm59.033-0.10418c-0.66741-0.42289-0.77671-0.87854-0.28383-1.1832 0.44087-0.27247 1.008 0.0426 1.2603 0.7 0.5301 1.3814 0.48018 1.4061-0.97647 0.48316zm-36.48-1.6325c-0.25314-0.4096-0.15439-0.93376 0.21945-1.1648 0.37384-0.23105 0.67972 0.10407 0.67972 0.74472 0 1.3489-0.25227 1.4668-0.89917 0.42009zm-2.0082-3.2067c-0.59296-1.108-0.56567-1.715 0.09546-2.1236 0.57435-0.35497 0.70909-0.22156 0.35495 0.35145-0.31395 0.50798-0.24958 0.92361 0.14306 0.92361s0.71388 0.54 0.71388 1.2c0 1.5961-0.3096 1.5129-1.3074-0.35145zm80.341 0.69822c-0.29003-0.46927-0.35575-1.0248-0.14604-1.2345 0.20969-0.2097 0.59445 0.17425 0.855 0.85322 0.54094 1.4097 0.0799 1.6576-0.70896 0.38128zm223.9-1.9116c0-0.64065 0.30587-0.97577 0.67972-0.74472 0.37384 0.23105 0.4726 0.75521 0.21945 1.1648-0.6469 1.0467-0.89917 0.92885-0.89917-0.42009zm-223.19-1.6697c-0.26055-0.67897-0.29498-1.4132-0.0765-1.6317 0.21847-0.21848 0.58925 0.33704 0.82393 1.2345 0.49852 1.9063-0.0554 2.2007-0.74744 0.39722zm2.5754-11.331c-0.43415-1.1402-0.34226-1.232 0.44784-0.44784 0.54673 0.54267 0.79253 1.1882 0.54622 1.4345-0.24631 0.24632-0.69364-0.19768-0.99406-0.98666zm-51.525-1.8345c0-1.1 0.18158-1.55 0.40351-1s0.22193 1.45 0 2-0.40351 0.1-0.40351-1zm-39.759-0.0532c-0.29003-0.46928-0.35575-1.0248-0.14604-1.2345 0.2097-0.2097 0.59445 0.17425 0.855 0.85323 0.54095 1.4097 0.07988 1.6576-0.70896 0.38128zm92-1.6c-0.29003-0.46928-0.35575-1.0248-0.14604-1.2345 0.20969-0.2097 0.59445 0.17425 0.855 0.85323 0.54094 1.4097 0.0799 1.6576-0.70896 0.38128zm0.96623-2.8801c-0.29334-0.29332-0.52239-1.1033-0.50901-1.8 0.02-1.0402 0.17609-1.0057 0.87333 0.19334 0.86142 1.4814 0.61169 2.5827-0.36432 1.6067zm228.29 0.13332c0-0.44 0.34897-1.34 0.7755-2s0.77549-0.84 0.77549-0.4-0.34896 1.34-0.77549 2-0.7755 0.84-0.7755 0.4zm-281.47-12.8c0.01632-1.32 0.1956-1.7632 0.39843-0.98478s0.1895 1.8584-0.0296 2.4c-0.21914 0.54162-0.3851-0.0952-0.36879-1.4152zm308.71 0.73333c0.0384-0.93196 0.22795-1.1215 0.48333-0.48333 0.23109 0.57749 0.20268 1.2675-0.0631 1.5333-0.26583 0.26583-0.45491-0.20667-0.42018-1.05zm-357.66-5.1333c0-0.44 0.38125-0.8 0.84721-0.8 0.46597 0 0.62472 0.36 0.35279 0.8s-0.65318 0.8-0.84721 0.8-0.35279-0.36-0.35279-0.8zm339.65-8.5655c-0.43414-1.1402-0.34225-1.232 0.44784-0.44784 0.54674 0.54267 0.79254 1.1882 0.54623 1.4345-0.24632 0.24632-0.69364-0.19768-0.99407-0.98666zm-202.9-2.4345c-1.5256-1.65-3.6687-4.1001-4.7624-5.4447-1.0937-1.3446-0.18853-0.5186 2.0115 1.8356l4 4.2803 0.0282-8.2356c0.0289-8.4269 1.6459-14.71 4.8082-18.683 0.83076-1.0438 0.7328-0.50417-0.29913 1.6479-4.0037 8.3495-5.2415 19.132-2.8698 25 1.3773 3.4076 0.49165 3.2861-2.9166-0.4zm-139.95 0.64721c0-0.41403 0.35588-0.97273 0.79084-1.2416 0.45349-0.28027 0.5876 0.0409 0.31441 0.75278-0.53183 1.3859-1.1052 1.6395-1.1052 0.48877zm343.57-0.90044c-0.29002-0.46927-0.35574-1.0248-0.14604-1.2345 0.2097-0.20971 0.59445 0.17425 0.855 0.85322 0.54095 1.4097 0.0799 1.6576-0.70896 0.38128zm-287.97-1.5468c-0.27194-0.44-0.11318-0.8 0.35278-0.8s0.84722 0.36 0.84722 0.8-0.15875 0.8-0.35278 0.8-0.57528-0.36-0.84722-0.8zm-77.176-0.4c0-0.44 0.34897-1.34 0.7755-2s0.7755-0.84 0.7755-0.4-0.34897 1.34-0.7755 2-0.7755 0.84-0.7755 0.4zm20.776-0.75279c0-0.63403 0.32643-1.3545 0.72539-1.6011 0.39897-0.24658 0.53698 0.27217 0.3067 1.1528-0.48849 1.868-1.0321 2.1041-1.0321 0.44832zm366.1-0.0782c-0.77198-2.0118-0.54425-2.5308 0.39883-0.90907 0.46695 0.803 0.68048 1.6285 0.4745 1.8345-0.20598 0.20598-0.59898-0.21047-0.87333-0.92543zm-253.24-0.83573c0.0384-0.93196 0.22796-1.1215 0.48333-0.48334 0.2311 0.5775 0.20268 1.2675-0.0631 1.5333-0.26584 0.26583-0.45491-0.20668-0.42017-1.05zm232.39-0.0988c-0.43414-1.1402-0.34225-1.232 0.44784-0.44784 0.54674 0.54268 0.79254 1.1882 0.54623 1.4345-0.24632 0.24631-0.69364-0.19769-0.99407-0.98667zm-288-0.8c-0.43414-1.1402-0.34226-1.232 0.44784-0.44784 0.54674 0.54268 0.79254 1.1882 0.54622 1.4345s-0.69364-0.19769-0.99406-0.98667zm-58.051-1.7873c0-0.41403 0.35588-0.97273 0.79084-1.2416 0.45349-0.28027 0.5876 0.0409 0.31441 0.75278-0.53183 1.3859-1.1052 1.6395-1.1052 0.48877zm114.46-0.51388c0.0384-0.93196 0.22796-1.1215 0.48333-0.48333 0.2311 0.57749 0.20268 1.2675-0.0631 1.5333-0.26584 0.26583-0.45491-0.20667-0.42017-1.05zm-55.612-0.89883c-0.43414-1.1402-0.34226-1.232 0.44784-0.44784 0.54674 0.54267 0.79254 1.1882 0.54622 1.4345-0.24631 0.24632-0.69364-0.19768-0.99406-0.98666zm0.71567-2.6877c-0.29002-0.46927-0.35574-1.0248-0.14604-1.2345 0.2097-0.20971 0.59445 0.17425 0.855 0.85322 0.54094 1.4097 0.07992 1.6576-0.70896 0.38128zm55.696-0.41344c0.0384-0.93196 0.22796-1.1215 0.48333-0.48333 0.2311 0.57749 0.20268 1.2675-0.0631 1.5333-0.26584 0.26583-0.45491-0.20667-0.42017-1.05zm-136.79 0.0667c0.083304-1.5154 1.4166-4.0671 1.463-2.8 0.02418 0.66-0.305 1.74-0.73152 2.4s-0.75571 0.84-0.73152 0.4zm369.01-0.83454c-0.26055-0.67897-0.29497-1.4132-0.0765-1.6317 0.21848-0.21848 0.58925 0.33705 0.82394 1.2345 0.49852 1.9063-0.0554 2.2007-0.74744 0.39722zm-287.02-2.531c-0.43414-1.1402-0.34226-1.232 0.44784-0.44784 0.54674 0.54267 0.79254 1.1882 0.54622 1.4345-0.24631 0.24632-0.69364-0.19768-0.99406-0.98666zm-61.988-0.70117c0.03838-0.93196 0.22795-1.1215 0.48333-0.48333 0.2311 0.57749 0.20268 1.2675-0.06316 1.5333-0.26583 0.26583-0.45491-0.20667-0.42018-1.05zm123.94-3.1333c-1.9432-1.98-3.3531-3.6-3.1331-3.6s1.9899 1.62 3.9331 3.6c1.9432 1.98 3.3531 3.6 3.1331 3.6s-1.9899-1.62-3.9331-3.6zm226.46 2.3333c0.0384-0.93196 0.22795-1.1215 0.48333-0.48333 0.23109 0.57749 0.20268 1.2675-0.0631 1.5333-0.26583 0.26583-0.45491-0.20667-0.42018-1.05zm-370.75-1.9333c0.63311-3.4502 1.088-4.101 1.0717-1.5333-0.00672 1.0633-0.36623 2.4733-0.79888 3.1333-0.55344 0.84425-0.63432 0.36993-0.27284-1.6zm391.18 0.36907c-0.27436-0.71496-0.46789-1.9005-0.43007-2.6345 0.0378-0.734 0.38592-0.27266 0.77355 1.0252 0.75413 2.525 0.48743 3.7746-0.34348 1.6093zm-252.44-0.83574c0.0384-0.93196 0.22796-1.1215 0.48333-0.48333 0.2311 0.57749 0.20268 1.2675-0.0631 1.5333-0.26584 0.26583-0.45491-0.20667-0.42017-1.05zm93.6-2.4c0.0384-0.93196 0.22795-1.1215 0.48332-0.48333 0.2311 0.57749 0.20268 1.2675-0.0631 1.5333-0.26583 0.26583-0.45491-0.20667-0.42017-1.05zm-211.94-2.7333c0-1.1 0.18158-1.55 0.40351-1 0.22193 0.55 0.22193 1.45 0 2-0.22193 0.55-0.40351 0.1-0.40351-1zm-21.59-0.4c0.012934-0.88 0.31175-2.5 0.66403-3.6l0.64051-2 0.02352 2c0.012936 1.1-0.28588 2.72-0.66403 3.6l-0.68754 1.6 0.023516-1.6zm371.99-0.4c0-1.1 0.18159-1.55 0.40351-1 0.22193 0.55 0.22193 1.45 0 2-0.22192 0.55-0.40351 0.1-0.40351-1zm21.63-0.4c0.0163-1.32 0.1956-1.7632 0.39843-0.98478s0.1895 1.8584-0.0297 2.4c-0.21914 0.54162-0.38509-0.0952-0.36879-1.4152zm-0.82965-4.4c0-1.1 0.18159-1.55 0.40351-1 0.22193 0.55 0.22193 1.45 0 2-0.22192 0.55-0.40351 0.1-0.40351-1zm-371.82-12.8c0-5.06 0.1299-7.13 0.28866-4.6 0.15876 2.53 0.15876 6.67 0 9.2-0.15876 2.53-0.28866 0.46-0.28866-4.6zm155.7 6.4c0.93992-1.32 1.889-2.4 2.109-2.4s-0.36904 1.08-1.309 2.4-1.889 2.4-2.109 2.4 0.36903-1.08 1.309-2.4zm-177.41-0.8c0-1.54 0.16464-2.17 0.36586-1.4 0.20122 0.77 0.20122 2.03 0 2.8-0.20122 0.77-0.36586 0.14-0.36586-1.4zm373.64-2c6e-3 -2.2 0.16137-3.005 0.34525-1.789 0.18389 1.216 0.17897 3.016-0.0109 4-0.18988 0.98395-0.34033-0.011-0.33433-2.211zm21.651-3.6c0-3.74 0.13781-5.27 0.30624-3.4 0.16842 1.87 0.16842 4.93 0 6.8-0.16843 1.87-0.30624 0.34-0.30624-3.4zm-215.48 2.898c0-0.16612 0.63-0.79612 1.4-1.4 1.2688-0.9951 1.2972-0.9668 0.30205 0.30205-1.0451 1.3326-1.702 1.7564-1.702 1.098zm-0.476-4.698-1.524-1.8 1.8 1.524c1.6916 1.4322 2.1642 2.076 1.524 2.076-0.15181 0-0.96181-0.81-1.8-1.8zm194.29-2.2c0-1.98 0.15601-2.79 0.34669-1.8 0.19069 0.99 0.19069 2.61 0 3.6-0.19068 0.99-0.34669 0.18-0.34669-1.8zm-373.62-2c0.00888-1.76 0.17271-2.3858 0.36406-1.3907 0.19135 0.99513 0.18409 2.4351-0.016145 3.2-0.20023 0.76487-0.3568-0.04933-0.34792-1.8093zm91.867 0.8c0.0833-1.5154 1.4166-4.0671 1.463-2.8 0.02416 0.66-0.30499 1.74-0.73152 2.4s-0.75571 0.84-0.73152 0.4zm83.029-1.8c-0.9951-1.2688-0.9668-1.2971 0.30204-0.30204 0.77 0.60388 1.4 1.2339 1.4 1.4 0 0.65843-0.65695 0.23464-1.702-1.098zm-3.098-2.2c-0.54775-0.66-0.72775-1.2-0.4-1.2 0.32776 0 0.10184-0.63-0.50204-1.4-0.99837-1.273-0.96923-1.299 0.32138-0.286 0.78063 0.61271 1.2338 1.2996 1.0069 1.5264-0.22682 0.22681-0.0114 0.89552 0.47862 1.486 0.49006 0.59048 0.71102 1.0736 0.49102 1.0736s-0.84816-0.54-1.3959-1.2zm-78.375-0.8c0-0.44 0.34896-1.34 0.77549-2s0.7755-0.84 0.7755-0.4-0.34897 1.34-0.7755 2-0.77549 0.84-0.77549 0.4zm-92.315-5.7091c-0.28287-2.0638-0.36015-3.9065-0.17172-4.095 0.18843-0.18843 0.59298 1.327 0.89899 3.3677 0.30601 2.0406 0.38329 3.8834 0.17172 4.095s-0.61612-1.3039-0.89899-3.3677zm392.47 2.1091c-8e-3 -1.1 0.27333-2.9 0.62561-4 0.5019-1.5672 0.63729-1.6538 0.62561-0.4-8e-3 0.88-0.28973 2.68-0.62561 4-0.54855 2.1558-0.61222 2.1965-0.62561 0.4zm-226.17-0.8c-0.79639-0.88-1.1681-1.6-0.82603-1.6s0.12787-0.63-0.47601-1.4c-0.99837-1.273-0.96923-1.299 0.32138-0.286 0.78063 0.61271 1.2298 1.3035 0.99825 1.5351-0.23159 0.2316 0.1755 1.0803 0.90466 1.886 0.72915 0.80571 1.1457 1.4649 0.92574 1.4649s-1.0516-0.72-1.848-1.6zm-145.07-4c0-1.1 0.18158-1.55 0.40351-1 0.22193 0.55 0.22193 1.45 0 2-0.22193 0.55-0.40351 0.1-0.40351-1zm350.4 0c0-1.1 0.18159-1.55 0.40351-1 0.22193 0.55 0.22193 1.45 0 2-0.22192 0.55-0.40351 0.1-0.40351-1zm-211-4.2-1.524-1.8 1.8 1.524c1.6916 1.4322 2.1642 2.076 1.524 2.076-0.15181 0-0.96181-0.81-1.8-1.8zm230.89 0.13334c6e-3 -1.0633 0.36624-2.4733 0.79889-3.1333 0.55343-0.84425 0.63431-0.36993 0.27283 1.6-0.63311 3.4502-1.088 4.101-1.0717 1.5333zm-390.51-1.3585c-0.26356-1.5898-0.14615-2.3361 0.29767-1.8923 0.40308 0.40308 0.59892 1.5844 0.4352 2.6251-0.2519 1.6014-0.36458 1.4887-0.73287-0.73286zm20.594-1.4058c-0.27436-0.71496-0.47601-1.7205-0.44812-2.2345 0.02789-0.51401 0.39562-0.0723 0.81719 0.98158s0.62322 2.0594 0.44812 2.2345c-0.1751 0.1751-0.54283-0.26661-0.81719-0.98157zm349.96-1.6357c0.0384-0.93196 0.22795-1.1215 0.48333-0.48334 0.23109 0.5775 0.20268 1.2675-0.0631 1.5333-0.26583 0.26583-0.45491-0.20667-0.42018-1.05zm-216.17-1.7333c-0.9951-1.2688-0.9668-1.2971 0.30204-0.30204 0.77 0.60388 1.4 1.2339 1.4 1.4 0 0.65843-0.65695 0.23464-1.702-1.098zm235.33 0.2c0-0.44 0.34897-1.34 0.7755-2s0.7755-0.84 0.7755-0.4-0.34897 1.34-0.7755 2-0.7755 0.84-0.7755 0.4zm-367.96-0.93456c-0.03474-0.51402-0.27034-1.594-0.52356-2.4-0.43764-1.393-0.41506-1.3947 0.45662-0.0353 0.50436 0.78657 0.73997 1.8666 0.52356 2.4-0.28398 0.69999-0.41104 0.70981-0.45662 0.0353zm128.74-2.2654c-1.0334-1.1-1.5498-2-1.1476-2s-0.25505-0.91456-1.4606-2.0324c-1.2055-1.1178-2.1918-2.2652-2.1918-2.5497 0-0.28452 1.0762 0.5138 2.3917 1.774 1.3154 1.2602 2.2121 2.4709 1.9927 2.6903-0.21943 0.21943 0.38707 1.2357 1.3478 2.2583 0.96072 1.0226 1.5668 1.8594 1.3468 1.8594s-1.2455-0.9-2.2789-2zm-49.6 0.0856c0-0.17293 0.5587-0.5288 1.2416-0.79084 0.71194-0.2732 1.0331-0.13908 0.75279 0.3144-0.46981 0.76017-1.9943 1.1244-1.9943 0.47644zm267.65-3.1201c0.30043-0.78898 0.74775-1.233 0.99407-0.98666 0.24631 0.24631 5.1e-4 0.89183-0.54623 1.4345-0.79009 0.78421-0.88198 0.69232-0.44784-0.44784zm-264.18-0.95626c0-0.64096 1.1087-2.1652 2.4638-3.3873 2.2704-2.0475 2.3222-2.0603 0.65935-0.16257-0.99243 1.1326-1.6124 2.2513-1.3778 2.486 0.23465 0.23465-0.0621 0.83223-0.65935 1.3279-0.83014 0.68895-1.086 0.62674-1.086-0.26406zm-102.17-3.2402c-0.77198-2.0118-0.54425-2.5308 0.39883-0.90908 0.46695 0.803 0.68048 1.6285 0.4745 1.8345-0.20598 0.20597-0.59897-0.21047-0.87333-0.92543zm20.668 0.3777c-0.29003-0.46927-0.35575-1.0248-0.14604-1.2345 0.2097-0.20971 0.59445 0.17424 0.855 0.85322 0.54095 1.4097 0.07988 1.6576-0.70896 0.38128zm345.3-0.41344c0.0384-0.93196 0.22795-1.1215 0.48333-0.48334 0.23109 0.5775 0.20268 1.2675-0.0631 1.5333-0.26583 0.26583-0.45491-0.20667-0.42018-1.05zm-224.97-1.7333c-0.9951-1.2688-0.9668-1.2971 0.30204-0.30204 0.77 0.60388 1.4 1.2339 1.4 1.4 0 0.65843-0.65695 0.23464-1.702-1.098zm223.75-1.2345c0.30043-0.78898 0.74775-1.233 0.99407-0.98666 0.24631 0.24631 5.1e-4 0.89183-0.54623 1.4345-0.79009 0.78421-0.88198 0.69232-0.44784-0.44784zm-342.48-3.0187c-0.29003-0.46927-0.35575-1.0248-0.14604-1.2345 0.2097-0.20971 0.59445 0.17424 0.855 0.85322 0.54095 1.4097 0.07988 1.6576-0.70896 0.38128zm99.844-2.1208c1.216-0.18389 3.016-0.17897 4 0.0109 0.98396 0.18989-0.011 0.34034-2.211 0.33434s-3.005-0.16138-1.789-0.34526zm240.99-1.0259c0.27194-0.44 0.65318-0.8 0.84722-0.8 0.19403 0 0.35278 0.36 0.35278 0.8s-0.38125 0.8-0.84722 0.8c-0.46596 0-0.62472-0.36-0.35278-0.8zm-339.23-2.4532c-0.29003-0.46927-0.35575-1.0248-0.14604-1.2345 0.2097-0.20971 0.59445 0.17424 0.855 0.85322 0.54095 1.4097 0.07988 1.6576-0.70896 0.38128zm105.63-14.347c0.27194-0.44 1.1719-0.8 2-0.8 0.82807 0 1.7281 0.36 2 0.8 0.28924 0.468-0.54076 0.8-2 0.8s-2.2892-0.332-2-0.8zm226.93-1.2343c-1.3404-2.9418-1.0847-3.5694 0.36469-0.89501 0.67681 1.2489 1.0809 2.4204 0.89792 2.6034s-0.75114-0.5858-1.2626-1.7084zm-231.54 0.33499c0.54267-0.54673 1.1882-0.79253 1.4345-0.54622s-0.19769 0.69364-0.98666 0.99406c-1.1402 0.43415-1.232 0.34226-0.44784-0.44784zm12.213 0.09927c-0.72103-0.46596-0.8197-0.78039-0.24721-0.78775 0.52403-6e-3 1.1753 0.34775 1.4472 0.78775 0.61384 0.99323 0.3369 0.99323-1.2 0zm7.7716-2.1224c-0.28676-0.46398 0.35447-1.2427 1.425-1.7304 1.4283-0.65077 2.0933-0.64901 2.4985 6e-3 0.33546 0.54278 0.18968 0.6694-0.37143 0.32261-0.50798-0.31373-0.92361-0.1681-0.92361 0.32383 0 0.49194-0.32925 0.69094-0.73167 0.44224-0.40241-0.24872-0.87651-0.0177-1.0535 0.51338-0.21535 0.64604-0.4944 0.6864-0.84324 0.12196zm-114.11-0.67758c0-0.44 0.51449-1.7 1.1433-2.8s1.1433-1.64 1.1433-1.2-0.51449 1.7-1.1433 2.8-1.1433 1.64-1.1433 1.2zm80.557-4.3333-1.8142-2.0667 2.0594 1.8073c1.1326 0.99403 2.2666 1.6001 2.5199 1.3468 0.2533-0.2533 0.66076-0.13659 0.90547 0.25934 1.0278 1.663-2.0054 0.55008-3.6705-1.3468zm41.786 0.43129c0-0.16612 0.63-0.79612 1.4-1.4 1.2688-0.9951 1.2972-0.9668 0.30205 0.30204-1.0451 1.3326-1.702 1.7564-1.702 1.098zm4.4-4.498c0.7964-0.88 1.628-1.6 1.848-1.6s-0.25159 0.72-1.048 1.6c-0.79639 0.88-1.628 1.6-1.848 1.6s0.25159-0.72 1.048-1.6zm212.01-10.391c-0.28027-0.45349 0.0409-0.5876 0.75279-0.31441 1.3859 0.53184 1.6395 1.1052 0.48877 1.1052-0.41404 0-0.97274-0.35588-1.2416-0.79084zm-23.339-1.174c0-0.64064 0.30587-0.97576 0.67972-0.74472 0.37384 0.23105 0.4726 0.75521 0.21945 1.1648-0.6469 1.0467-0.89917 0.92885-0.89917-0.42009zm-305.43-1.1799c-0.25314-0.4096-0.15439-0.93376 0.21945-1.1648 0.37384-0.23104 0.67972 0.10408 0.67972 0.74472 0 1.3489-0.25227 1.4668-0.89917 0.42009zm123.93-1.7085c-0.29003-0.46927-0.35575-1.0248-0.14604-1.2345 0.20969-0.2097 0.59445 0.17425 0.855 0.85323 0.54094 1.4097 0.0799 1.6576-0.70896 0.38128zm-145.7-1.1116c0-0.64064 0.30587-0.97576 0.67972-0.74472 0.37384 0.23105 0.4726 0.75521 0.21945 1.1648-0.6469 1.0467-0.89917 0.92885-0.89917-0.42009zm23.367 0.42009c-0.25314-0.4096-0.15439-0.93376 0.21945-1.1648 0.37384-0.23104 0.67972 0.10408 0.67972 0.74472 0 1.3489-0.25227 1.4668-0.89917 0.42009zm301.43-0.42009c0-0.64064 0.30587-0.97576 0.67972-0.74472 0.37384 0.23105 0.4726 0.75521 0.21945 1.1648-0.6469 1.0467-0.89917 0.92885-0.89917-0.42009zm-178.18-2.5006c-0.67723-1.7648-0.58549-9.3391 0.12665-10.458 0.32327-0.50798 0.58775 1.922 0.58775 5.4 0 3.478-0.0515 6.3236-0.1144 6.3236-0.063 0-0.33293-0.56944-0.6-1.2654zm176.58 0.10062c0-0.64064 0.30587-0.97576 0.67972-0.74472 0.37384 0.23105 0.4726 0.75521 0.21945 1.1648-0.6469 1.0467-0.89917 0.92885-0.89917-0.42009zm-9.1687-12.235c-0.9951-1.2688-0.9668-1.2971 0.30205-0.30205 0.77 0.60388 1.4 1.2339 1.4 1.4 0 0.65843-0.65695 0.23465-1.702-1.098zm-168.7-0.95278c0-0.41403 0.35588-0.97274 0.79084-1.2416 0.45349-0.28027 0.5876 0.04088 0.31441 0.75278-0.53183 1.3859-1.1052 1.6395-1.1052 0.48877zm-1.9658-5.5919c-0.25315-0.4096-0.0388-1.0052 0.47639-1.3236 0.55828-0.34503 0.72312-0.23338 0.40807 0.27639-0.29073 0.47041-0.0763 1.0376 0.47639 1.2604 0.71931 0.29 0.73415 0.42313 0.0522 0.46833-0.52403 0.03472-1.1599-0.27197-1.413-0.68156zm-103.63-0.35733c0-0.16612 0.63-0.79612 1.4-1.4 1.2688-0.9951 1.2971-0.9668 0.30204 0.30205-1.0451 1.3326-1.702 1.7564-1.702 1.098zm294.81-0.48879c-0.28027-0.45349 0.0409-0.5876 0.75279-0.31441 1.3859 0.53183 1.6395 1.1052 0.48876 1.1052-0.41403 0-0.97273-0.35588-1.2416-0.79084zm-238.85-2.6552c1.5163-1.6247 2.9102-2.9539 3.0976-2.9539 0.83833 0-2.1646 3.6031-3.9132 4.6953-1.4815 0.92537-1.2884 0.51292 0.81558-1.7414zm211.14 1.2461c-0.9951-1.2688-0.9668-1.2971 0.30205-0.30205 0.77 0.60388 1.4 1.2339 1.4 1.4 0 0.65843-0.65695 0.23465-1.702-1.098zm-164.43-0.56481c0-0.64065 0.30587-0.97577 0.67972-0.74472 0.37384 0.23105 0.4726 0.75521 0.21945 1.1648-0.6469 1.0467-0.89917 0.92885-0.89917-0.42009zm-128.2 0.13843c0.18333-0.1245 1.0533-0.7545 1.9333-1.4 1.48-1.0856 1.5177-1.0686 0.50204 0.22638-0.60388 0.77-1.4739 1.4-1.9333 1.4-0.45946 0-0.68538-0.10187-0.50204-0.22638zm318.69-1.0178c-1.4912-1.1947-1.4814-1.2095 0.2471-0.37185 0.99 0.47975 1.8 1.0396 1.8 1.2441 0 0.61218-0.41489 0.43539-2.0471-0.87228zm-285.15-5.4062c0-0.13768 1.17-1.3077 2.6-2.6l2.6-2.3497-2.3497 2.6c-2.1902 2.4236-2.8503 2.9677-2.8503 2.3497zm71.014-5.1295c1.4379-0.17805 3.5979-0.17438 4.8 0.0082 1.2021 0.18254 0.0257 0.32822-2.6143 0.32373-2.64-0.0045-3.6236-0.15384-2.1857-0.33189zm170.48-5.6202c-0.9951-1.2688-0.9668-1.2971 0.30205-0.30204 0.77 0.60388 1.4 1.2339 1.4 1.4 0 0.65843-0.65695 0.23464-1.702-1.098zm-259.72-1.4264c1.1967-1.2588 2.3192-2.1279 2.4946-1.9312 0.17535 0.19667-0.80374 1.2266-2.1758 2.2888l-2.4946 1.9312zm29.424 1.7243c0-0.16612 0.63-0.79612 1.4-1.4 1.2688-0.9951 1.2971-0.9668 0.30205 0.30204-1.0451 1.3326-1.702 1.7564-1.702 1.098zm257.47-3.9053c-2.0529-1.8659-4.8809-4.8326-6.2843-6.5926l-2.5517-3.2 3.0843 3.2079c1.6964 1.7644 4.7043 4.7305 6.6843 6.5914 1.98 1.8609 3.42 3.384 3.2 3.3847s-2.0797-1.5254-4.1326-3.3914zm-282.27-2.1926c1.0146-0.88 2.0255-1.6 2.2464-1.6 0.22087 0-0.25001 0.72-1.0464 1.6-0.79639 0.88-1.8073 1.6-2.2464 1.6s0.03175-0.72 1.0464-1.6zm228.23-6c6e-3 -2.2 0.16137-3.005 0.34525-1.789 0.18389 1.216 0.17897 3.016-0.0109 4-0.18993 0.98395-0.34037-0.011-0.33437-2.211zm-222.63 0c1.0334-1.1 2.0589-2 2.2789-2s-0.44551 0.9-1.4789 2-2.0589 2-2.2789 2 0.44551-0.9 1.4789-2zm244.86-0.06666c0.0384-0.93195 0.22795-1.1215 0.48333-0.48333 0.23109 0.5775 0.20268 1.2675-0.0631 1.5333-0.26584 0.26583-0.45492-0.20667-0.42018-1.05zm-1.1749-6.3333c0.65797-2.9415 1.1159-3.5801 1.0995-1.5333-7e-3 0.84333-0.37767 2.0733-0.8243 2.7333-0.59305 0.87637-0.66727 0.55273-0.27521-1.2zm18.61 0.6c-0.9951-1.2688-0.9668-1.2971 0.30205-0.30204 1.3326 1.0451 1.7564 1.702 1.098 1.702-0.16612 0-0.79612-0.63-1.4-1.4zm-220.21-0.34639c0.23105-0.37384 0.75521-0.4726 1.1648-0.21945 1.0467 0.6469 0.92885 0.89917-0.42009 0.89917-0.64064 0-0.97576-0.30587-0.74472-0.67972zm213.33-4.0536c-1.1993-1.5508-1.9538-3-1.5617-3 0.19537 0 0.94492 0.9 1.6657 2 1.3487 2.0583 1.2736 2.7811-0.10392 1zm-237.74-3.5636c0.58252-0.96999 1.2313-1.5914 1.4418-1.381 0.21046 0.21047-0.26614 1.0041-1.0591 1.7636-1.3776 1.3194-1.3946 1.3024-0.38266-0.38267zm233.52-0.23638c-0.47096-0.88-0.6763-1.6-0.4563-1.6s0.78534 0.72 1.2563 1.6 0.67629 1.6 0.45629 1.6-0.78533-0.72-1.2563-1.6zm-230.75-1.8345c0.30042-0.78898 0.74775-1.233 0.99406-0.98667s5.12e-4 0.89184-0.54622 1.4345c-0.7901 0.78421-0.88198 0.69232-0.44784-0.44784zm66.749-9.3655c-0.72103-0.46597-0.8197-0.78039-0.24721-0.78775 0.52403-0.0067 1.1753 0.34775 1.4472 0.78775 0.61384 0.99322 0.3369 0.99322-1.2 0zm2.4-0.8c-0.72103-0.46597-0.8197-0.78039-0.24721-0.78775 0.52403-0.0067 1.1753 0.34775 1.4472 0.78775 0.61384 0.99322 0.3369 0.99322-1.2 0zm-51.51-1.7464c0.23105-0.37384 0.75521-0.4726 1.1648-0.21945 1.0467 0.6469 0.92885 0.89917-0.42009 0.89917-0.64064 0-0.97576-0.30587-0.74472-0.67972zm3.8412-1.5642c-0.34503-0.55828-0.23337-0.72312 0.2764-0.40806 0.4704 0.29073 1.0376 0.07634 1.2604-0.47639 0.29-0.71931 0.42313-0.73415 0.46833-0.0522 0.0913 1.3767-1.3245 2.038-2.0052 0.93666zm68.318-0.43593c0.5775-0.2311 1.2675-0.20268 1.5333 0.06316 0.26583 0.26583-0.20667 0.45491-1.05 0.42018-0.93196-0.03838-1.1215-0.22795-0.48334-0.48333zm-64.968-0.92018c-0.22662-0.36667 0.0963-0.66667 0.71759-0.66667s0.94421 0.3 0.71759 0.66667c-0.2266 0.36667-0.54952 0.66667-0.71759 0.66667-0.16806 0-0.49098-0.3-0.71759-0.66667zm71.733 0.11227c0.77837-0.20284 1.8584-0.1895 2.4 0.02964 0.54162 0.21914-0.0952 0.38509-1.4152 0.36879-1.32-0.0163-1.7632-0.1956-0.98477-0.39843zm13.967-0.82299c1.4202-0.17673 3.9402-0.17963 5.6-0.0065 1.6598 0.17318 0.49784 0.31778-2.5822 0.32133-3.08 0.0035-4.438-0.13814-3.0178-0.31487zm-67.782-8.2226c0.66-0.42652 1.56-0.7755 2-0.7755s0.26 0.34898-0.4 0.7755c-0.66 0.42652-1.56 0.7755-2 0.7755s-0.26-0.34898 0.4-0.7755zm84-0.30204c0-0.16612 0.63-0.79612 1.4-1.4 1.2688-0.9951 1.2971-0.9668 0.30204 0.30204-1.0451 1.3326-1.702 1.7564-1.702 1.098zm4.409-3.1995c0.75625-1.1542 1.5263-2.0985 1.7111-2.0985 0.5787 0-1.2839 3.0832-2.2074 3.6539-0.48328 0.29868-0.25994-0.40127 0.4963-1.5554zm-56.003-5.2893c-0.28027-0.45349 0.0409-0.58761 0.75278-0.31441 1.3859 0.53183 1.6395 1.1052 0.48877 1.1052-0.41403 0-0.97274-0.35588-1.2416-0.79084zm4.3943-0.80916c-0.66-0.42652-0.84-0.7755-0.4-0.7755s1.34 0.34897 2 0.7755 0.84 0.7755 0.4 0.7755-1.34-0.34897-2-0.7755zm6.25-0.54649c0.5775-0.2311 1.2675-0.20268 1.5333 0.06316 0.26583 0.26583-0.20667 0.45491-1.05 0.42018-0.93196-0.038384-1.1215-0.22795-0.48334-0.48333zm3.35-1.0646c-0.84425-0.55343-0.36993-0.63432 1.6-0.27284 3.4502 0.63311 4.101 1.088 1.5333 1.0717-1.0633-0.0067376-2.4733-0.36623-3.1333-0.79888zm45.6 0.50193c0-0.17006 1.061-0.46492 2.3578-0.65524 1.2968-0.19032 2.1755-0.051184 1.9528 0.3092-0.39641 0.64141-4.3105 0.95563-4.3105 0.34604zm-37.2-1.3117c-1.0684-0.47305-0.40383-0.55029 2-0.23244 1.98 0.2618 3.75 0.60591 3.9333 0.76468 0.6949 0.6018-4.4054 0.14429-5.9333-0.53223zm29.6 0.020906c1.32-0.33588 3.12-0.62799 4-0.64912l1.6-0.038424-1.6 0.68754c-0.88 0.37815-2.68 0.67025-4 0.64912l-2.4-0.038424zm-14.986-1.3798c1.4379-0.17805 3.5979-0.17438 4.8 0.00816 1.2021 0.18254 0.0257 0.32822-2.6143 0.32373-2.64-0.00449-3.6236-0.15384-2.1857-0.33189z" fill="#767676"/>
  <path d="m183.2 400.26c-1.1-0.17982-6.4956-1.0652-11.99-1.9675-13.751-2.2581-42.412-10.695-43.074-12.679-0.15012-0.45038-0.58078-0.62862-0.95701-0.3961-0.9335 0.57694-14.382-6.1604-13.89-6.958 0.21635-0.35005-0.2244-0.3994-0.97944-0.10967-1.0051 0.3857-1.1974 0.243-0.71794-0.53277 0.42537-0.68825 0.3449-0.868-0.22962-0.51292-1.0443 0.64538-17.5-9.1992-19.632-11.745-0.80818-0.96486-1.2187-1.2143-0.9122-0.55429s-0.29229 0.283-1.3306-0.83778c-1.0383-1.1208-1.5278-1.502-1.0878-0.84709 0.44 0.65489-0.37 0.33419-1.8-0.71266-2.4803-1.8157-3.624-3.1297-1.6764-1.9261 0.57683 0.3565 0.70626 0.21914 0.34472-0.36583-0.31838-0.51516-0.85924-0.76339-1.2019-0.55162-0.96367 0.59559-10.811-7.7501-19.687-16.685-7.8432-7.8951-19.884-22.041-16.757-19.686 0.8677 0.65335 0.13763-0.27357-1.6224-2.0598-4.0291-4.0892-13.453-19.272-12.709-20.475 0.31957-0.51708 0.19893-0.67914-0.28358-0.38093-0.46188 0.28545-1.0534-0.0376-1.3144-0.71795-0.31302-0.81571-0.13723-1.0629 0.51617-0.72598 0.54496 0.28103 0.21626-0.15027-0.73044-0.95845-2.2389-1.9113-6.8961-11.27-6.1827-12.425 0.3159-0.51115 0.19094-0.66919-0.29274-0.37025-1.7572 1.086-13.161-33.503-13.318-40.396-0.04671-2.0469-0.31532-3.3498-0.5969-2.8952-0.77301 1.2479-1.6893-5.3745-1.1574-8.3657 0.32498-1.8279 0.26031-2.1348-0.2144-1.0174-0.9577 2.2542-1.9878-6.4127-1.4104-11.867 0.27457-2.5935 0.19975-3.3882-0.20083-2.1333-1.0885 3.4099-1.5654-12.881-0.7611-26 0.40461-6.6 1.2563-15.24 1.8927-19.2s1.164-7.56 1.1725-8c0.0085-0.44 0.38089-0.26 0.82752 0.4 0.61235 0.9049 0.69488 0.69284 0.33557-0.86235-1.019-4.4106 10.949-42.338 13.36-42.338 0.41918 0 0.54849-0.34569 0.28736-0.76821-0.47316-0.76558 4.0108-10.432 4.8391-10.432 0.23963 0 0.17883 0.41563-0.13512 0.92361-0.34565 0.55928-0.22028 0.70696 0.31785 0.37438 0.48877-0.30208 0.66321-1.1368 0.38766-1.8548-0.33262-0.8668-0.18952-1.1131 0.42578-0.73284 0.62457 0.38601 0.75501 0.12514 0.4-0.8-0.3857-1.0051-0.243-1.1974 0.53277-0.71794 0.69828 0.43157 0.86832 0.34542 0.49868-0.25267-0.6644-1.075 9.1743-17.256 12.246-20.14 1.1716-1.1 1.5974-1.64 0.94611-1.2s-0.3276-0.37 0.71924-1.8c1.8157-2.4803 3.1297-3.624 1.9261-1.6764-0.3565 0.57683-0.21915 0.70626 0.36584 0.34472 0.51516-0.31838 0.75815-0.86771 0.53998-1.2207-0.44712-0.72345 9.011-12.085 11.528-13.848 0.89779-0.62884 1.3946-1.381 1.1041-1.6716-0.29053-0.29054 0.01596-0.52824 0.6811-0.52824s1.8951-0.78188 2.7333-1.7375c0.96571-1.101 1.0844-1.4905 0.32399-1.0633-1.4984 0.84191 7.9994-8.0205 13.21-12.326 2.1272-1.7578 4.1403-3.0275 4.4736-2.8215 0.3333 0.20599 0.8665-0.04697 1.1849-0.56213 0.36154-0.58498 0.23211-0.72234-0.34472-0.36584-1.9476 1.2037-0.8039-0.11035 1.6764-1.9261 1.43-1.0468 2.24-1.3676 1.8-0.71267-0.44 0.65488 0.04952 0.27369 1.0878-0.84708 1.0383-1.1208 1.637-1.4978 1.3306-0.83778s0.10402 0.42435 0.9122-0.52367c2.5641-3.0077 22.644-15.135 21.539-13.009-0.32367 0.62294-0.0458 0.46657 0.6176-0.34749 0.66335-0.81406 1.5652-1.2582 2.004-0.98695 0.43887 0.27124 1.0584 0.07166 1.3768-0.4435 0.38592-0.62444 0.22982-0.72092-0.46833-0.28944-0.71377 0.44114-0.85473 0.33576-0.44269-0.33093 0.33249-0.53798 1.0783-0.79634 1.6574-0.57412 0.57908 0.22221 1.2657-0.1506 1.5258-0.82846 0.2657-0.69241 0.99584-1.0318 1.6662-0.7746 0.65628 0.25184 1.1932 0.16698 1.1932-0.18858 0-2.1274 35.246-13.863 42.123-14.025 1.9861-0.04685 2.9517-0.34542 2.4-0.74211-0.51372-0.3694 0.65495-0.48242 2.6354-0.25488 1.9571 0.22487 3.0945 0.12215 2.5276-0.22825-0.62216-0.38451 1.456-1.0334 5.2416-1.6366 7.3517-1.1715 44.357-1.9171 40.672-0.81953-1.7611 0.52464-1.0922 0.60198 2.5129 0.29052 6.2933-0.54369 14.666 0.41308 12.792 1.4618-0.72456 0.40548-1.6835 0.511-2.1309 0.23448-0.44742-0.27652-0.71456-0.026-0.59367 0.5567 0.12159 0.58596-0.40202 1.0104-1.1716 0.94979-0.76526-0.06032-1.2453 0.12672-1.0667 0.41565 0.17857 0.28893-0.94446 1.3573-2.4956 2.3741-1.5512 1.0168-2.5428 1.3698-2.2036 0.78435 0.33919-0.58542-0.91357 0.64712-2.7839 2.739-1.8704 2.0918-3.7376 3.5951-4.1495 3.3405-0.41188-0.25456-0.64995-0.13601-0.52906 0.26344 0.12091 0.39944-1.0487 2.1362-2.5992 3.8595l-2.819 3.1332-6.381-0.06073c-9.9814-0.09499-21.481 1.06-32.484 3.2626-5.5566 1.1124-10.777 1.803-11.6 1.5348-1.1347-0.3696-1.2293-0.29676-0.39066 0.30086 0.85075 0.60625 0.53166 0.91476-1.3805 1.3347-1.3678 0.30043-2.9114 0.28394-3.4301-0.03665-0.63172-0.39042-0.72893-0.2363-0.29443 0.46674 0.48328 0.78196 0.20851 0.93451-1.0775 0.59821-1.1061-0.28926-1.5372-0.14558-1.2 0.4 0.33718 0.54558-0.0939 0.68926-1.2 0.4-1.1061-0.28926-1.5372-0.14558-1.2 0.4 0.34039 0.55076-0.11092 0.6848-1.278 0.3796-0.99233-0.2595-1.5938-0.26135-1.3365-0.0041 0.25724 0.25724-3.8119 2.1604-9.0425 4.2293-5.2306 2.0689-11.91 5.0804-14.842 6.6923-2.9324 1.6119-5.7577 2.6866-6.2783 2.3882-0.52064-0.29836-0.6789-0.24705-0.3517 0.11403 0.74452 0.82159-2.328 3.0594-3.341 2.4333-0.40882-0.25267-1.0038-0.0379-1.3222 0.47726-0.38592 0.62444-0.22981 0.72092 0.46833 0.28944 0.71378-0.44114 0.85473-0.33577 0.44269 0.33093-0.33249 0.53798-1.1871 0.75458-1.8992 0.48132-0.71208-0.27325-1.0421-0.24419-0.73329 0.06458 0.30877 0.30877-2.0422 2.378-5.2244 4.5983-16.956 11.831-32.546 27.272-44.324 43.902-1.7828 2.5172-3.411 4.4072-3.6181 4.2s-0.37665 0.11378-0.37665 0.71319c0 1.144-3.3204 6.9102-3.9791 6.9102-0.21008 0-0.123-0.45 0.19351-1 0.32884-0.57142 0.26773-0.71866-0.14258-0.34354-0.39493 0.36106-0.72265 1.0811-0.72826 1.6-0.0056 0.51894-2.0471 4.9035-4.5366 9.7435-4.1873 8.1407-6.8545 14.522-8.7771 21-0.42443 1.43-1.136 2.6-1.5813 2.6s-0.59735 0.34344-0.33792 0.7632c0.25943 0.41977 0.23306 1.714-0.05859 2.876-0.39756 1.584-0.71011 1.8435-1.2488 1.0368-0.46304-0.69344-0.5368-0.29381-0.20747 1.124 0.33344 1.4355 0.18648 2.2-0.42291 2.2-0.51367 0-0.74006 0.3137-0.5031 0.69711 0.23696 0.38341-0.35449 4.157-1.3143 8.3858-0.95985 4.2288-1.9937 7.2865-2.2975 6.795-0.30379-0.49153-0.40661 0.86485-0.22849 3.0142 0.17964 2.1678 0.05224 3.3048-0.28611 2.5534-1.8158-4.0321-1.6921 39.759 0.1449 51.314 0.7168 4.5086 1.0866 8.9723 0.8218 9.9192-0.30337 1.0848-0.22537 1.3562 0.21085 0.73352 0.85564-1.2213 3.7528 10.59 2.9258 11.928-0.32327 0.52306-0.20571 0.68768 0.27772 0.3889 1.0505-0.64926 1.9929 2.8606 1.2723 4.7385-0.39603 1.032-0.25645 1.2225 0.53667 0.73231 0.78332-0.48412 0.93437-0.30408 0.56106 0.66876-0.28096 0.73218-0.21245 1.3312 0.15226 1.3312 0.36471 0 1.6563 2.97 2.8701 6.6s3.7836 9.7854 5.7104 13.679c1.9269 3.8932 3.2684 7.4588 2.9812 7.9236-0.33014 0.53418-0.1325 0.60413 0.53731 0.19016 0.76779-0.47452 0.9199-0.29091 0.5524 0.6668-0.3127 0.81488-0.13477 1.2486 0.46405 1.1312 0.53416-0.10472 0.92186 0.43573 0.86153 1.201-0.06032 0.76526 0.17196 1.2173 0.51617 1.0046 0.34422-0.21273 0.83945 0.16983 1.1005 0.85016 0.29551 0.7701 0.14606 1.0339-0.39599 0.69887-0.59918-0.37032-0.58754-9e-3 0.03731 1.1584 0.49938 0.93311 1.0965 1.6966 1.327 1.6966 0.23049 0 0.18658-0.45-0.09757-1-0.28415-0.55 0.22822-0.1 1.1386 1 0.91038 1.1 1.4973 2.4385 1.3044 2.9744-0.19298 0.53592 0.04903 1.2215 0.5378 1.5236 0.53812 0.33259 0.6635 0.18491 0.31785-0.37437-0.31395-0.50799-0.4071-0.92361-0.207-0.92361 0.2001 0 1.5713 1.89 3.0472 4.2s4.2273 6.1019 6.1142 8.4265c1.8869 2.3246 3.2102 4.5835 2.9405 5.0198s-0.19352 0.70124 0.16918 0.58873c0.80884-0.25091 20.636 19.526 20.416 20.365-0.0863 0.33 0.15951 0.51 0.54626 0.4 0.38675-0.11 3.0693 1.6866 5.9612 3.9924 2.8919 2.3058 7.5031 5.6434 10.247 7.417 4.5098 2.9148 7.5633 5.2188 4.7649 3.5953-0.76179-0.44196-0.9372-0.35025-0.54472 0.28479 0.31839 0.51516 0.96341 0.69901 1.4334 0.40855 0.46998-0.29046 1.5563 0.33367 2.4141 1.387 0.85781 1.0533 1.2951 1.4132 0.97184 0.7999-0.41526-0.78783 0.13866-0.68603 1.8871 0.34678 1.3612 0.80407 2.2588 1.8115 1.9948 2.2388-0.26406 0.42726-0.10773 0.54668 0.34739 0.2654s4.7408 1.4164 9.5236 3.7726c4.7829 2.3562 12.364 5.4802 16.848 6.9422 4.4835 1.462 7.9379 3.0043 7.6764 3.4274-0.26404 0.42722-0.0561 0.5101 0.46769 0.18639 1.3853-0.85617 5.8267 0.29 5.1798 1.3367-0.34195 0.55329-0.059 0.68698 0.7758 0.36661 0.7227-0.27732 4.4885 0.18862 8.3685 1.0354 13.548 2.9569 26.8 4.1259 43.685 3.8535 8.7476-0.14112 15.228-0.39835 14.4-0.57162s2.2752-0.97809 6.8952-1.7885c4.62-0.81039 9.3-1.2877 10.4-1.0607 1.328 0.27409 1.6424 0.17376 0.93547-0.29862-1.3513-0.90304 3.2066-1.9395 5.187-1.1795 0.85664 0.32872 1.1458 0.20008 0.80177-0.35665-0.64691-1.0467 3.7945-2.1929 5.1798-1.3367 0.63449 0.39213 0.72883 0.23614 0.28828-0.47667-0.47016-0.76076-0.29399-0.92109 0.62472-0.56856 0.70375 0.27006 1.3928 0.20483 1.5312-0.14496 0.13843-0.3498 3.3117-1.6394 7.0517-2.8659s10.698-4.164 15.462-6.5279c4.7641-2.3639 8.9693-4.1082 9.3447-3.8761 0.37545 0.23205 0.94314 4e-4 1.2615-0.51476 0.36153-0.58498 0.23211-0.72234-0.34472-0.36583-0.50799 0.31395-0.92361 0.37881-0.92361 0.14415 0-0.23467 1.1196-1.0056 2.488-1.7133 1.8424-0.95273 2.3434-1.01 1.9306-0.22054-0.30661 0.58634 0.14437 0.2043 1.0022-0.84898 0.8578-1.0533 1.9442-1.6774 2.4141-1.387 0.46997 0.29046 1.115 0.10661 1.4334-0.40855 0.36153-0.58498 0.23211-0.72234-0.34472-0.36583-0.50799 0.31395-0.92361 0.38224-0.92361 0.15175s0.76344-0.82765 1.6965-1.327c1.373-0.73478 1.5758-0.702 1.0634 0.17185-0.34825 0.5939 0.41831 0.0564 1.7034-1.1944 3.2279-3.1418 13.962-11.071 15.241-11.259 1.1554-0.16957 2.2787-1.1039 2.3248-1.9336 0.0486-0.87374 18.318-18.884 18.97-18.702 0.33 0.0926 0.51-0.28174 0.4-0.83174s0.27676-0.90108 0.85946-0.78018c0.5984 0.12415 0.82148-0.16525 0.51261-0.66501-0.30077-0.48665 0.36043-1.8456 1.4693-3.0198s3.7976-4.7356 5.9749-7.9142c2.1773-3.1785 4.1893-5.6085 4.4712-5.4 0.28186 0.20853 0.33726 0.14393 0.12309-0.14357-0.38917-0.52242 2.3437-5.566 3.8348-7.0773 0.52137-0.52842 0.57174-0.41855 0.14837 0.32361-0.41992 0.7361-0.3345 0.93419 0.24769 0.57437 0.48877-0.30207 0.66321-1.1368 0.38766-1.8548-0.36181-0.94285-0.20662-1.1237 0.55854-0.65077 0.70442 0.43535 0.86852 0.34574 0.48961-0.26736-0.70267-1.1369 1.4135-4.3438 2.3228-3.5199 0.36108 0.3272 0.40728 0.16065 0.10265-0.37012-0.30462-0.53076 1.0332-4.1308 2.9728-8 1.9397-3.8692 4.6936-10.455 6.1198-14.635 1.4262-4.18 2.8725-7.7073 3.214-7.8384 0.34148-0.1311 0.42238-0.9974 0.17978-1.9251-0.2812-1.0753-0.13246-1.496 0.41032-1.1605 0.54557 0.33719 0.68925-0.0939 0.4-1.2-0.3363-1.286-0.18376-1.5608 0.5982-1.0775 0.70305 0.4345 0.85716 0.33729 0.46675-0.29443-0.84791-1.372 0.28949-5.827 1.3244-5.1875 0.52553 0.3248 0.62423 0.1515 0.25447-0.44678-0.6839-1.1066 1.0575-11.426 1.8459-10.938 0.281 0.17366 0.53928-1.3599 0.57398-3.4079 0.0347-2.048 0.50604-8.5836 1.0474-14.524 1.0894-11.953 0.63068-26.429-1.2127-38.268-0.63951-4.1072-0.94456-8.2472-0.67789-9.2 0.33287-1.1894 0.25398-1.4002-0.2517-0.67262-0.89894 1.2934-2.9596-8.1794-2.0866-9.5919 0.37115-0.60053 0.20796-0.69407-0.47473-0.27214-0.79951 0.49412-0.91328 0.13688-0.49155-1.5434 0.40033-1.595 0.28963-2.0262-0.40934-1.5942-0.67279 0.41581-0.82367 0.0781-0.50667-1.1341 0.28925-1.1061 0.14557-1.5372-0.4-1.2-0.54558 0.33718-0.68927-0.0939-0.4-1.2 0.24827-0.94941 0.18365-1.5607-0.1436-1.3585-0.32726 0.20226-1.4366-2.4072-2.4651-5.7989-1.0286-3.3916-4.0491-10.667-6.7124-16.167-2.6633-5.5-4.801-10.446-4.7506-10.991 0.0504-0.54526-0.28886-0.75621-0.75395-0.46876-0.52369 0.32365-0.65489 0.0255-0.34462-0.78299 0.27555-0.71809 0.10111-1.5528-0.38766-1.8548-0.56996-0.35226-0.6796-0.14627-0.30573 0.57437 0.32061 0.61799 8e-3 0.41394-0.69405-0.45344-0.70234-0.86736-1.1048-2.0258-0.89426-2.5744 0.21049-0.54854-0.0172-1.2445-0.50596-1.5466-0.57556-0.35572-0.66063-0.18026-0.24145 0.49798 0.44113 0.71378 0.33577 0.85473-0.33094 0.44269-0.53797-0.33249-0.78932-1.0966-0.55854-1.698 0.23078-0.6014 0.0197-1.3406-0.46907-1.6427-0.58462-0.36132-0.66564-0.16481-0.2368 0.57437 1.4677 2.5299-0.49578-0.0182-4.0659-5.2764-7.1205-10.487-22.069-26.757-33.139-36.069l-2.8-2.3552v-9.3085c0-5.2715-0.31052-9.118-0.71599-8.8692-0.3938 0.24165-0.5358-0.50326-0.31557-1.6553 0.24805-1.2976 0.092-1.9041-0.41003-1.5938-0.49665 0.30695-0.63578-0.16704-0.35932-1.2242 0.24811-0.9488 0.20375-1.7251-0.0986-1.7251-0.30234 0-0.9534-1.0695-1.4468-2.3766l-0.89708-2.3766 4.9217 3.2662c2.7069 1.7964 5.7712 4.2159 6.8095 5.3766 1.0383 1.1607 1.638 1.5704 1.3326 0.9104-0.30534-0.66 0.46515-0.10596 1.7122 1.2312s1.9074 1.8772 1.4674 1.2c-1.6107-2.4788 9.0628 6.9579 18.598 16.443 11.344 11.285 16.326 17.078 15.64 18.188-0.2668 0.43169-0.15946 0.58635 0.23852 0.3437s1.4151 0.48098 2.2603 1.6081c0.96017 1.2805 1.1102 1.8169 0.4 1.4298-0.62518-0.34072-0.0566 0.34606 1.2633 1.5262 1.32 1.1801 1.86 1.8687 1.2 1.5302-0.66-0.33851-0.12 0.48101 1.2 1.8211 3.289 3.3392 11.778 17.744 11.101 18.839-0.35684 0.57737-0.17829 0.65855 0.5112 0.23241 0.77577-0.47945 0.91847-0.28716 0.53277 0.71794-0.35501 0.92514-0.22457 1.186 0.4 0.8 0.64062-0.39592 0.74824-0.10749 0.34856 0.93407-0.31803 0.82877-0.32481 1.2534-0.015 0.94367 0.30975-0.30974 1.0373 0.0612 1.6168 0.82438 1.3436 1.7693 1.3949 2.832 0.10455 2.1654-0.55-0.28415-0.10538 0.20999 0.98804 1.0981 1.0934 0.88808 1.7406 1.8622 1.4381 2.1646-0.30247 0.30248-6e-3 1.0935 0.65796 1.7579 0.66435 0.66436 0.98818 1.7805 0.71962 2.4804-0.26856 0.69986-0.23085 1.015 0.0838 0.70039 2.1124-2.1124 14.046 37.092 14.227 46.741 0.0468 2.4862 0.32056 4.1409 0.6083 3.6771 1.0898-1.7567 1.8759 10.906 1.85 29.803-0.0207 15.165-0.36169 21.653-1.5068 28.674-0.97973 6.0072-1.7225 8.7113-2.1975 8-0.47076-0.70494-0.55366-0.36519-0.24103 0.98792 1.2797 5.5391-14.705 52.297-17.324 50.678-0.37685-0.23291-0.44812 0.19429-0.15839 0.94933 0.38569 1.0051 0.243 1.1974-0.53277 0.71794-0.70442-0.43535-0.86852-0.34574-0.48961 0.26736 0.56453 0.91342-1.3364 4.4446-2.0231 3.758-0.19625-0.19625-0.36059 0.25604-0.36519 1.0051-9e-3 1.4784-11.118 19.282-14.102 22.6-1.0079 1.1208-1.4726 1.4808-1.0326 0.8 0.70039-1.0836 0.62327-1.0991-0.61933-0.12377-0.78063 0.6127-1.2433 1.29-1.0282 1.5052 0.73992 0.73993-1.2335 3.4252-2.1163 2.8796-0.48762-0.30136-0.65991-0.1843-0.38454 0.26127 1.2752 2.0633-29.334 32.349-31.402 31.071-0.36766-0.22723-1.1593 0.21289-1.7591 0.97805-0.98696 1.2589-0.95755 1.2868 0.30935 0.29324 0.77-0.60388 1.4-0.8984 1.4-0.65448 0 0.24391-1.145 1.2588-2.5444 2.2553-1.3994 0.9965-2.2244 1.294-1.8332 0.66106s-0.56327 0.10629-2.121 1.6427c-3.7758 3.7241-22.014 14.665-23.212 13.925-0.62783-0.38802-0.72072-0.22953-0.28176 0.4807 0.47944 0.77577 0.28716 0.91847-0.71795 0.53277-0.75503-0.28973-1.1944-0.23816-0.97638 0.11461 0.51697 0.83647-9.7804 5.9168-10.763 5.3099-0.41295-0.2552-0.7508-0.0615-0.7508 0.43042 0 0.49194-0.36 0.67194-0.8 0.4s-0.8-0.12788-0.8 0.32012c0 0.93218-21.891 8.2001-31.875 10.583-14.57 3.477-26.725 4.6958-45.725 4.5846-9.9-0.0579-18.9-0.25239-20-0.4322zm7.0093-0.80483c-0.76487-0.20024-2.2049-0.2075-3.2-0.0162-0.99513 0.19135-0.36933 0.35518 1.3907 0.36406 1.76 9e-3 2.5742-0.14769 1.8093-0.34792zm32 0c-0.76487-0.20024-2.2049-0.2075-3.2-0.0162-0.99512 0.19135-0.36932 0.35518 1.3907 0.36406 1.76 9e-3 2.5742-0.14769 1.8093-0.34792zm-40.026-0.73368c-0.26584-0.26583-0.95584-0.29424-1.5333-0.0631-0.63818 0.25538-0.44862 0.44495 0.48334 0.48333 0.84333 0.0347 1.3158-0.15434 1.05-0.42017zm46.4 0c-0.26583-0.26583-0.95584-0.29424-1.5333-0.0631-0.63819 0.25538-0.44863 0.44495 0.48333 0.48333 0.84333 0.0347 1.3158-0.15434 1.05-0.42017zm-44.8-19.2c-0.26584-0.26583-0.95584-0.29424-1.5333-0.0631-0.63818 0.25538-0.44862 0.44495 0.48334 0.48333 0.84333 0.0347 1.3158-0.15434 1.05-0.42017zm53.6-1.6c-0.26583-0.26583-0.95584-0.29424-1.5333-0.0631-0.63819 0.25538-0.44863 0.44495 0.48333 0.48333 0.84333 0.0347 1.3158-0.15434 1.05-0.42017zm-68-0.8c-0.26584-0.26583-0.95584-0.29424-1.5333-0.0631-0.63818 0.25538-0.44862 0.44495 0.48334 0.48333 0.84333 0.0347 1.3158-0.15434 1.05-0.42017zm-102.98-33.517c-1.9432-1.98-3.7131-3.6-3.9331-3.6s1.1899 1.62 3.1331 3.6c1.9432 1.98 3.7131 3.6 3.9331 3.6 0.22 0-1.1899-1.62-3.1331-3.6zm277.2-0.4c2.1669-2.2 3.7598-4 3.5398-4s-2.1729 1.8-4.3398 4-3.7599 4-3.5399 4 2.1729-1.8 4.3399-4zm-311.85-100.95c-0.25538-0.63819-0.44495-0.44863-0.48333 0.48333-0.03474 0.84333 0.15434 1.3158 0.42018 1.05s0.29426-0.95584 0.06316-1.5333zm-2.4-12c-0.25538-0.63819-0.44495-0.44863-0.48333 0.48333-0.03474 0.84333 0.15434 1.3158 0.42018 1.05s0.29426-0.95584 0.06316-1.5333zm350.4-0.8c-0.25538-0.63819-0.44495-0.44863-0.48333 0.48333-0.0347 0.84333 0.15434 1.3158 0.42018 1.05 0.26583-0.26583 0.29424-0.95584 0.0631-1.5333zm-370.39-3.6348c-0.20284-0.77838-0.38213-0.33522-0.39843 0.98478-0.016304 1.32 0.14965 1.9568 0.36879 1.4152s0.23248-1.6216 0.02964-2.4zm390.38-0.41522c-0.22192-0.55-0.40351-0.1-0.40351 1s0.18159 1.55 0.40351 1c0.22193-0.55 0.22193-1.45 0-2zm0.8-9.6c-0.22192-0.55-0.40351-0.1-0.40351 1s0.18159 1.55 0.40351 1c0.22193-0.55 0.22193-1.45 0-2zm-391.98-27.6c-0.20122-0.77-0.36586-0.14-0.36586 1.4s0.16464 2.17 0.36586 1.4c0.20122-0.77 0.20122-2.03 0-2.8zm392 0.81523c-0.20283-0.77838-0.38213-0.33523-0.39843 0.98477s0.14965 1.9568 0.36879 1.4152c0.21914-0.54163 0.23247-1.6216 0.0297-2.4zm-0.8-8.8c-0.20283-0.77838-0.38213-0.33523-0.39843 0.98477s0.14965 1.9568 0.36879 1.4152c0.21914-0.54163 0.23247-1.6216 0.0297-2.4zm-390.4-0.8c-0.20284-0.77838-0.38213-0.33523-0.39843 0.98477-0.016304 1.32 0.14965 1.9568 0.36879 1.4152 0.21914-0.54163 0.23248-1.6216 0.02964-2.4zm370.39-2.7652c-0.25538-0.63818-0.44495-0.44862-0.48333 0.48334-0.0347 0.84333 0.15434 1.3158 0.42018 1.05 0.26583-0.26584 0.29424-0.95584 0.0631-1.5333zm-2.4-12c-0.25538-0.63818-0.44495-0.44862-0.48333 0.48334-0.0347 0.84333 0.15434 1.3158 0.42018 1.05 0.26583-0.26584 0.29424-0.95584 0.0631-1.5333zm-62.4-106.4c-0.25538-0.63819-0.44495-0.44862-0.48333 0.48333-0.0347 0.84333 0.15434 1.3158 0.42017 1.05 0.26584-0.26583 0.29425-0.95583 0.0631-1.5333zm-0.81667-8.05c-0.22193-0.55-0.40351-0.1-0.40351 1s0.18158 1.55 0.40351 1 0.22193-1.45 0-2zm-95.628-32.4c0.9951-1.2688 0.9668-1.2971-0.30204-0.30204-1.3326 1.0451-1.7564 1.702-1.098 1.702 0.16612 0 0.79612-0.63 1.4-1.4zm-41.119-8.6833c-0.26584-0.26583-0.95584-0.29425-1.5333-0.06316-0.63818 0.25538-0.44862 0.44495 0.48334 0.48333 0.84333 0.034736 1.3158-0.15434 1.05-0.42018zm6.0319-0.84142c-0.54163-0.21914-1.6216-0.23248-2.4-0.02964-0.77838 0.20284-0.33523 0.38213 0.98477 0.39843 1.32 0.016304 1.9568-0.14965 1.4152-0.36879zm44.8 0c-0.54162-0.21914-1.6216-0.23248-2.4-0.02964-0.77838 0.20284-0.33522 0.38213 0.98478 0.39843 1.32 0.016304 1.9568-0.14965 1.4152-0.36879zm-35.615-0.82671c-0.77-0.20122-2.03-0.20122-2.8 0-0.77 0.20122-0.14 0.36586 1.4 0.36586s2.17-0.16464 1.4-0.36586zm-73.383 322.5c-2.4106-1.493-5.0519-3.5326-5.8694-4.5325-0.81757-0.99993-1.2102-1.2972-0.87261-0.66072 1.1376 2.1447-3.9559-2.0758-9.7492-8.0783-6.3735-6.6036-10.26-12.256-9.4264-13.709 0.30639-0.53363 0.26496-0.70583-0.09208-0.38267-0.35703 0.32316-1.1233-0.0369-1.7028-0.8-1.2514-1.6479-1.4279-2.8818-0.3137-2.1932 0.45286 0.27988 0.58798-0.0398 0.31617-0.74819-0.26106-0.68033-0.75516-1.0636-1.098-0.85172-0.91668 0.56655-2.6661-4.1312-1.9625-5.2697 0.40854-0.66103 0.26494-0.76441-0.44897-0.32319-0.78196 0.48328-0.9345 0.20851-0.59821-1.0775 0.28629-1.0948 0.14365-1.536-0.38998-1.2062-0.53988 0.33367-0.6979-0.23061-0.44096-1.5747 0.22024-1.1521 0.11554-1.9186-0.23266-1.7034-1.0713 0.66208-1.9154-6.7675-1.9132-16.84 0.0024-10.741 0.9197-19.054 2.0272-18.369 0.40256 0.2488 0.51649-0.10905 0.25318-0.79522-0.74469-1.9406 0.42735-6.973 1.4734-6.3265 0.59098 0.36525 0.71429 0.0812 0.36257-0.8354-0.61131-1.593 0.95915-8.631 1.8088-8.1059 0.30953 0.1913 0.42241-0.80317 0.25085-2.2099-0.17928-1.4701-0.03264-2.1652 0.34476-1.6347 0.38944 0.5474 0.69683-0.42928 0.75534-2.4 0.19192-6.4642 8.5018-35.971 13.268-47.112 0.91584-2.1408 1.982-3.5661 2.4508-3.2764 0.47519 0.29368 0.5902 0.12521 0.26914-0.39426-0.70373-1.1387 0.76934-4.0826 3.007-6.0096 0.93851-0.80818 1.1856-1.1932 0.54904-0.85554-2.0015 1.0616 2.1816-4.1844 6.0559-7.5947 2.0163-1.7748 5.699-3.9905 8.1838-4.9237 8.7745-3.2954 21.604-0.86228 27.318 5.1809 1.1 1.1634 2.6717 2.7333 3.4927 3.4888 3.4526 3.1771 17.245 19.628 16.91 20.17-0.20062 0.32462 0.43674 1.2683 1.4164 2.0971l1.7811 1.5069-1.524-1.8c-0.83819-0.99-1.3394-1.8-1.1138-1.8 0.22558 0 3.5221 3.7496 7.3255 8.3325l6.9154 8.3325-5.9497 8.8039c-3.9375 5.8263-6.5084 10.613-7.6015 14.152-1.774 5.7434-2.1695 14.028-0.84637 17.727 0.65009 1.8177-0.0828 1.3187-3.8-2.5874-2.533-2.6617-3.7062-3.7417-2.6071-2.4 1.9163 2.3394 1.8766 2.3276-0.96886-0.28727-1.632-1.4997-2.7456-3.0854-2.4747-3.5236 0.27086-0.43827 0.14046-0.57928-0.2898-0.31338-0.43025 0.26591-3.6274-2.3785-7.1048-5.8764-5.4493-5.4814-8.3601-7.5463-8.3601-5.9305 0 0.23612-0.8698 4.4661-1.9329 9.4-1.0631 4.9339-2.9317 14.08-4.1524 20.324-1.2866 6.5808-2.5437 11.153-2.9907 10.876-0.42415-0.26214-0.5278-0.0828-0.23035 0.39846 0.84911 1.3739-0.36996 7.7232-1.2359 6.4371-0.44653-0.6632-0.53237 0.14226-0.22751 2.135 0.36642 2.3952 0.27355 2.8982-0.3692 2-0.64729-0.90452-0.72977-0.52916-0.33498 1.5244 0.37428 1.9468 0.2624 2.5629-0.39196 2.1584-0.59741-0.36923-0.74642-0.12479-0.42868 0.70323 0.70648 1.8411-2.2077 15.132-3.0363 13.847-0.39974-0.61958-0.50669-0.0723-0.26703 1.3665 0.4777 2.8678-6.8391 36.577-8.002 36.866-0.44 0.10933-2.7723-1.0227-5.1829-2.5157zm-8.8171-7.0266c0-0.15181-0.81-0.96181-1.8-1.8l-1.8-1.524 1.524 1.8c1.4322 1.6916 2.076 2.1642 2.076 1.524zm22.946-32.674c-0.25537-0.63819-0.44494-0.44863-0.48333 0.48333-0.0347 0.84333 0.15434 1.3158 0.42018 1.05 0.26583-0.26583 0.29425-0.95584 0.0631-1.5333zm46.654-94.552c0-0.16612-0.63-0.79612-1.4-1.4-1.2688-0.9951-1.2971-0.9668-0.30204 0.30204 1.0451 1.3326 1.702 1.7564 1.702 1.098zm-18.4-21.559c0-0.14329-0.99-1.1333-2.2-2.2l-2.2-1.9394 1.9394 2.2c1.8127 2.0562 2.4606 2.5669 2.4606 1.9394zm-47.098-5.9394c0.9951-1.2688 0.9668-1.2971-0.30205-0.30204-0.77 0.60388-1.4 1.2339-1.4 1.4 0 0.65843 0.65695 0.23464 1.702-1.098zm22.421-29.93c0.69473-0.46387 0.29617-0.53769-1.1231-0.20801-1.4355 0.33345-2.2 0.18649-2.2-0.42291 0-0.51367-0.34942-0.71799-0.7765-0.45404-0.42708 0.26396-1.9082-0.10533-3.2915-0.82064-4.5663-2.3613-9.2495-7.4262-11.62-12.567-4.1734-9.0508-2.8322-21.819 3.214-30.598 3.7-5.372 10.008-10.853 15.39-13.373 4.6057-2.1565 6.637-2.6167 12.684-2.8731 8.4716-0.35929 14.123 1.3314 19.263 5.7632 3.2769 2.8251 7.1233 8.4154 5.0517 7.3422-0.61333-0.31774-0.44911-0.03496 0.36496 0.62838 0.8626 0.70291 1.2282 1.6136 0.87639 2.1829-0.36881 0.59674-0.27059 0.77095 0.25241 0.44772 0.99948-0.61771 2.5911 5.9438 2.5911 10.682 0 4.7381-1.5916 11.3-2.5911 10.682-0.5087-0.3144-0.62269-0.1514-0.28088 0.40164 0.80856 1.3083-0.26082 4.2524-1.3092 3.6045-0.5208-0.32187-0.63488-0.16124-0.28617 0.40298 0.77553 1.2548-1.8732 5.4027-6.127 9.5947-3.5654 3.5136-9.3985 7.6446-8.312 5.8865 0.47615-0.77043 0.1682-0.78372-1.4176-0.0612-1.1142 0.50768-1.8519 1.2045-1.6393 1.5485 0.53901 0.87215-2.6171 1.7708-3.7532 1.0686-0.6188-0.38243-0.71357-0.22382-0.28277 0.47324 0.50686 0.82012 0.0546 0.93441-2.0764 0.52473-1.6406-0.3154-2.296-0.24784-1.6475 0.16985 0.65624 0.42268-1.4831 0.69362-5.4769 0.69362-4.1427 0-6.1576-0.26453-5.4769-0.71904zm39.656-36.87c-0.17746-1.43-0.32266-0.26-0.32266 2.6s0.1452 4.03 0.32266 2.6 0.17746-3.77 0-5.2z" fill="#28509E"/>
 </g>
</svg>
