<svg height="512" viewBox="0 0 512 512" width="512" xmlns="http://www.w3.org/2000/svg">
    <g fill="#7FC31C" id="Outline">
        <path d="m488 416h-8v-376a8 8 0 0 0 -8-8h-432a8 8 0 0 0 -8 8v376h-8a8 8 0 0 0 -8 8v32a8 8 0 0 0 8 8h24v24a8 8 0 0 0 8 8h48a8 8 0 0 0 8-8v-24h112v24a8 8 0 0 0 8 8h48a8 8 0 0 0 8-8v-24h112v24a8 8 0 0 0 8 8h48a8 8 0 0 0 8-8v-24h24a8 8 0 0 0 8-8v-32a8 8 0 0 0 -8-8zm-152 0v-112h32v40a8 8 0 0 0 8 8h48a8 8 0 0 0 8-8v-40h32v112zm-240-112h32v32h-32zm-48-16v-112h32v40a8 8 0 0 0 8 8h48a8 8 0 0 0 8-8v-40h32v112zm48-112h32v32h-32zm96 0h32v40a8 8 0 0 0 8 8h48a8 8 0 0 0 8-8v-40h32v112h-128zm48-128h32v32h-32zm-8 48h48a8 8 0 0 0 8-8v-40h32v112h-128v-112h32v40a8 8 0 0 0 8 8zm8 80h32v32h-32zm144 0h32v32h-32zm-8 48h48a8 8 0 0 0 8-8v-40h32v112h-128v-112h32v40a8 8 0 0 0 8 8zm8 80h32v32h-32zm-144 0h32v32h-32zm-16 0v40a8 8 0 0 0 8 8h48a8 8 0 0 0 8-8v-40h32v112h-128v-112zm240-144h-128v-112h32v40a8 8 0 0 0 8 8h48a8 8 0 0 0 8-8v-40h32zm-80-112h32v32h-32zm-288 0h32v32h-32zm-16 0v40a8 8 0 0 0 8 8h48a8 8 0 0 0 8-8v-40h32v112h-128v-112zm-32 256h32v40a8 8 0 0 0 8 8h48a8 8 0 0 0 8-8v-40h32v112h-128zm48 176h-32v-16h32zm176 0h-32v-16h32zm176 0h-32v-16h32zm32-32h-448v-16h448z"/>
        <path d="m432 384h16v16h-16z"/>
        <path d="m288 384h16v16h-16z"/>
        <path d="m432 256h16v16h-16z"/>
        <path d="m288 256h16v16h-16z"/>
        <path d="m144 384h16v16h-16z"/>
        <path d="m144 256h16v16h-16z"/>
        <path d="m432 128h16v16h-16z"/>
        <path d="m288 128h16v16h-16z"/>
        <path d="m144 128h16v16h-16z"/>
    </g>
</svg>